<?xml version="1.0" standalone="no"?>
<!DOCTYPE svg PUBLIC "-//W3C//DTD SVG 20010904//EN"
 "http://www.w3.org/TR/2001/REC-SVG-20010904/DTD/svg10.dtd">
<svg version="1.0" xmlns="http://www.w3.org/2000/svg"
 width="3115.000000pt" height="3115.000000pt" viewBox="0 0 3115.000000 3115.000000"
 preserveAspectRatio="xMidYMid meet">
<metadata>
Created by potrace 1.11, written by Peter Selinger 2001-2013
</metadata>
<g transform="translate(0.000000,3115.000000) scale(0.100000,-0.100000)"
fill="#000000" stroke="none">
<path d="M15110 30429 c-1782 -55 -3557 -436 -5205 -1117 -2196 -908 -4132
-2319 -5672 -4134 -2676 -3155 -3916 -7314 -3407 -11423 257 -2071 937 -4044
2012 -5835 1011 -1686 2365 -3169 3956 -4334 2741 -2007 6089 -3016 9476
-2855 2477 117 4877 847 6994 2127 1793 1084 3338 2537 4532 4262 1389 2007
2264 4332 2543 6760 129 1119 129 2271 0 3390 -244 2126 -945 4174 -2054 6007
-1101 1817 -2593 3390 -4351 4586 -2595 1765 -5687 2664 -8824 2566z m915 -69
c1157 -39 2234 -195 3319 -481 2893 -762 5496 -2391 7447 -4659 1229 -1430
2179 -3093 2785 -4875 946 -2779 1045 -5759 288 -8595 -807 -3021 -2568 -5728
-5004 -7689 -3180 -2561 -7253 -3694 -11295 -3140 -2935 402 -5694 1683 -7895
3667 -310 280 -833 803 -1096 1097 -2775 3103 -4116 7171 -3724 11300 306
3219 1669 6259 3875 8645 138 149 533 546 717 720 1707 1614 3849 2826 6123
3463 1457 409 2985 596 4460 547z"/>
<path d="M14172 30151 c-142 -57 -158 -86 -67 -127 68 -29 100 -32 90 -6 -15
37 -9 47 42 72 63 30 88 53 80 74 -10 24 -62 19 -145 -13z"/>
<path d="M14665 30156 c-21 -32 -16 -57 16 -75 32 -18 75 -8 84 19 19 61 -66
109 -100 56z"/>
<path d="M13720 30157 c-29 -10 -35 -17 -35 -41 0 -16 7 -33 17 -40 30 -19
159 56 136 79 -11 12 -87 13 -118 2z"/>
<path d="M13903 30153 c-18 -7 -16 -30 3 -37 44 -17 101 0 91 28 -6 16 -65 21
-94 9z"/>
<path d="M14319 30043 c-15 -40 -57 -81 -91 -88 -16 -4 -27 -12 -25 -18 5 -14
63 -11 94 5 26 13 53 65 53 102 0 34 -18 33 -31 -1z"/>
<path d="M12919 30031 c-20 -16 -22 -23 -13 -38 6 -10 18 -19 27 -21 23 -5 86
25 94 44 14 36 -69 47 -108 15z"/>
<path d="M14632 30025 c-37 -31 -51 -80 -29 -102 14 -14 19 -13 52 7 47 29 88
89 73 107 -17 21 -64 15 -96 -12z"/>
<path d="M18215 30039 c-24 -38 55 -108 90 -79 21 18 19 27 -14 61 -30 29 -64
38 -76 18z"/>
<path d="M13883 30011 c-28 -9 -67 -29 -85 -43 -34 -26 -77 -102 -64 -115 3
-4 28 1 54 10 29 11 77 17 125 17 89 0 117 11 117 44 0 20 6 24 41 29 52 7 56
12 34 37 -38 41 -136 51 -222 21z"/>
<path d="M14413 30000 c-61 -37 -34 -80 37 -60 19 6 36 10 38 10 1 0 -4 -13
-13 -29 -18 -36 -3 -51 25 -26 30 28 45 72 32 100 -9 20 -19 25 -49 25 -21 0
-53 -9 -70 -20z"/>
<path d="M13365 29996 c-62 -15 -95 -35 -95 -58 0 -19 25 -22 129 -18 92 4
184 47 160 77 -14 17 -124 16 -194 -1z"/>
<path d="M13633 29930 c-36 -21 -40 -32 -20 -48 26 -22 107 20 107 55 0 20
-50 16 -87 -7z"/>
<path d="M12553 29920 c-13 -5 -23 -14 -23 -19 0 -24 95 -29 126 -7 18 14 18
15 -9 25 -33 13 -64 13 -94 1z"/>
<path d="M12990 29903 c-55 -7 -70 -27 -70 -94 0 -69 -15 -83 -45 -45 -32 40
-110 56 -306 63 -180 6 -200 1 -160 -41 12 -13 21 -36 21 -54 0 -48 19 -79 59
-95 l36 -14 -55 -26 c-30 -15 -59 -27 -65 -27 -5 0 -10 19 -10 42 0 37 -3 43
-22 46 -38 6 -63 -31 -63 -93 l0 -55 -50 -31 c-53 -33 -72 -68 -50 -94 16 -20
56 -19 72 1 35 43 69 68 172 128 62 36 125 77 141 92 l28 26 -33 29 c-30 28
-31 31 -17 52 8 12 25 28 38 34 25 13 101 18 112 7 3 -4 -7 -23 -23 -43 -30
-35 -39 -74 -20 -86 5 -3 50 8 99 24 48 17 102 31 119 31 64 0 102 39 102 104
0 29 18 46 50 46 43 0 66 29 48 63 -9 17 -29 19 -108 10z"/>
<path d="M14175 29876 c-44 -32 25 -76 118 -76 89 0 115 42 46 77 -33 17 -140
16 -164 -1z"/>
<path d="M12105 29821 c-59 -34 -100 -75 -90 -90 13 -22 146 -6 211 25 48 23
60 48 34 74 -30 30 -93 27 -155 -9z"/>
<path d="M13384 29839 c-4 -8 5 -23 25 -39 l32 -27 -51 -7 c-103 -14 -127
-100 -34 -125 28 -7 27 -8 -26 -34 -66 -33 -123 -35 -215 -6 -74 23 -103 22
-119 -3 -16 -26 21 -69 77 -90 25 -10 100 -26 166 -37 119 -20 201 -45 201
-62 0 -5 14 -16 32 -25 48 -25 118 -15 162 24 24 21 50 33 83 37 26 3 58 10
71 15 26 11 29 45 5 55 -10 3 -86 3 -169 -1 -108 -5 -161 -3 -187 6 -21 6 -37
15 -37 19 0 11 62 67 89 81 14 7 39 10 62 6 63 -10 95 46 45 79 -19 13 -32 14
-67 6 -24 -6 -48 -11 -52 -11 -4 0 15 27 43 61 28 34 49 66 47 73 -5 16 -173
21 -183 5z"/>
<path d="M13153 29801 c-50 -24 -84 -47 -87 -59 -6 -19 17 -94 37 -119 14 -19
55 -16 105 8 83 41 80 107 -5 94 -26 -4 -43 -2 -43 4 0 5 23 29 50 52 84 71
64 78 -57 20z"/>
<path d="M19150 29795 c0 -42 256 -265 305 -265 34 0 10 38 -78 124 -131 129
-227 188 -227 141z"/>
<path d="M11867 29762 c-18 -19 -21 -40 -11 -66 9 -24 30 -19 53 10 25 32 27
60 5 68 -24 9 -29 8 -47 -12z"/>
<path d="M13933 29769 c-108 -25 -57 -103 55 -84 48 8 117 46 117 65 0 27 -90
37 -172 19z"/>
<path d="M13702 29749 c-72 -36 -82 -93 -17 -105 45 -8 100 19 116 58 25 61
-24 84 -99 47z"/>
<path d="M18750 29760 c-34 -21 59 -78 170 -104 145 -34 128 41 -19 83 -89 26
-133 32 -151 21z"/>
<path d="M11822 29640 c-36 -30 -96 -42 -168 -35 -82 9 -84 -6 -6 -41 107 -47
122 -44 186 36 45 57 37 81 -12 40z"/>
<path d="M12877 29645 c-9 -8 -17 -20 -19 -27 -4 -11 -75 -13 -109 -3 -28 9
-33 -15 -8 -41 24 -26 24 -26 -8 -43 -30 -15 -30 -15 -25 19 4 26 1 30 -18 30
-32 0 -137 -59 -166 -93 -33 -40 -30 -92 8 -120 28 -21 64 -24 184 -17 57 4
64 2 98 -28 20 -18 45 -32 56 -32 24 0 52 28 48 49 -4 22 -78 58 -147 71 -31
6 -67 13 -80 16 -19 4 1 17 97 64 119 59 172 102 172 140 0 31 -57 41 -83 15z"/>
<path d="M11940 29622 c-82 -32 -51 -76 37 -53 46 13 68 33 59 56 -7 19 -40
18 -96 -3z"/>
<path d="M13925 29596 c-17 -12 -16 -16 13 -68 39 -68 42 -122 8 -193 -34 -73
-65 -105 -171 -176 -61 -41 -95 -70 -95 -81 0 -32 51 -21 156 33 200 103 239
149 239 284 0 105 -30 160 -106 200 -22 12 -29 12 -44 1z"/>
<path d="M12103 29548 c-6 -7 -13 -21 -16 -31 -11 -30 -88 -56 -229 -77 -202
-31 -231 -43 -226 -94 3 -28 0 -31 -35 -38 -54 -11 -77 -26 -77 -48 0 -26 47
-27 155 -1 237 58 490 178 511 243 12 39 -59 77 -83 46z"/>
<path d="M19530 29526 c0 -34 141 -125 174 -113 27 11 2 43 -66 88 -62 40
-108 50 -108 25z"/>
<path d="M11494 29491 c-187 -71 -280 -117 -328 -163 -12 -11 -51 -38 -88 -60
-38 -22 -68 -45 -68 -50 0 -22 73 6 265 102 216 108 336 178 343 198 6 19 -15
14 -124 -27z"/>
<path d="M10770 29470 c-36 -39 -54 -116 -40 -171 6 -21 15 -41 20 -44 20 -12
52 8 66 41 14 34 66 70 137 95 20 7 37 16 37 20 0 3 -32 9 -70 12 -84 7 -94
12 -80 38 25 47 -29 53 -70 9z"/>
<path d="M19917 29412 c-15 -23 11 -68 74 -126 99 -92 300 -226 339 -226 35 0
-11 54 -115 135 -27 22 -98 81 -157 132 -101 87 -130 104 -141 85z"/>
<path d="M13040 29330 c-57 -57 15 -150 79 -103 34 26 40 74 12 102 -27 27
-65 27 -91 1z"/>
<path d="M10266 29254 c-23 -23 -20 -51 9 -70 23 -15 27 -15 50 0 14 9 25 25
25 36 0 24 -26 50 -50 50 -10 0 -26 -7 -34 -16z"/>
<path d="M12791 29256 c-15 -18 22 -120 52 -141 29 -20 86 -20 94 1 8 21 -23
86 -59 123 -32 33 -68 40 -87 17z"/>
<path d="M12629 29256 c-3 -3 -47 -10 -99 -17 -75 -10 -99 -17 -117 -35 -27
-27 -30 -75 -7 -94 13 -11 32 -5 120 39 107 55 154 86 154 102 0 9 -43 13 -51
5z"/>
<path d="M10820 29209 c-107 -21 -210 -67 -234 -104 -47 -72 47 -58 223 32
184 95 186 107 11 72z"/>
<path d="M13162 29210 c-56 -24 -29 -70 72 -120 66 -33 120 -39 134 -14 8 14
12 12 31 -14 26 -38 26 -56 0 -99 -12 -20 -19 -43 -16 -55 4 -13 -3 -34 -19
-57 -13 -19 -24 -41 -24 -48 0 -23 53 -14 108 18 57 32 91 86 92 142 0 15 7
43 14 62 12 27 21 35 41 35 22 0 26 4 23 23 -4 29 -97 79 -200 107 -88 24
-223 35 -256 20z"/>
<path d="M10070 29176 c-92 -26 -136 -64 -94 -80 9 -3 38 -6 65 -6 68 0 65
-15 -23 -122 -21 -25 -38 -48 -38 -52 0 -31 131 44 199 115 47 48 52 76 16 85
l-25 6 25 20 c42 33 33 48 -27 47 -29 0 -73 -6 -98 -13z"/>
<path d="M11205 29179 c-51 -29 -62 -79 -17 -79 34 0 135 57 129 73 -5 16 -87
20 -112 6z"/>
<path d="M13015 29165 c-33 -32 -29 -59 7 -63 32 -4 81 39 76 66 -5 28 -54 27
-83 -3z"/>
<path d="M12124 29150 c-29 -16 -62 -43 -75 -60 -61 -79 -99 -116 -161 -157
-38 -23 -68 -47 -68 -52 0 -19 19 -21 60 -7 105 36 263 163 305 246 35 70 20
77 -61 30z"/>
<path d="M10431 29116 c-6 -7 -8 -21 -5 -30 6 -16 81 -66 99 -66 13 0 -3 71
-21 91 -20 22 -57 25 -73 5z"/>
<path d="M10952 29055 c-198 -86 -272 -135 -207 -135 54 0 373 148 383 178 8
25 -55 10 -176 -43z"/>
<path d="M20076 29093 c-17 -17 0 -51 59 -113 89 -95 86 -125 -14 -137 -28 -3
-58 -11 -67 -17 -17 -13 -33 -73 -34 -123 0 -18 -2 -33 -5 -33 -3 0 -23 9 -45
20 -27 14 -59 20 -105 20 -75 0 -105 -12 -105 -41 0 -16 19 -29 84 -60 84 -39
329 -125 375 -131 35 -4 37 17 3 31 -16 7 -34 23 -40 36 -29 63 -26 200 4 230
9 8 25 15 37 15 33 0 105 39 112 61 10 30 -34 89 -121 163 -71 61 -125 92
-138 79z"/>
<path d="M9660 28977 c-102 -70 -128 -101 -96 -113 29 -11 73 17 145 91 64 66
84 96 64 95 -5 -1 -55 -33 -113 -73z"/>
<path d="M9879 28978 c-34 -24 -69 -53 -77 -65 -13 -20 -12 -23 4 -30 36 -14
184 88 184 127 0 23 -52 7 -111 -32z"/>
<path d="M10201 28981 c-26 -17 1 -31 59 -31 58 0 85 14 59 31 -8 5 -34 9 -59
9 -25 0 -51 -4 -59 -9z"/>
<path d="M19302 28978 c-5 -7 -13 -29 -17 -48 -11 -53 -31 -86 -70 -115 -46
-36 -52 -59 -24 -99 31 -46 81 -78 133 -83 61 -7 69 11 21 52 -43 36 -42 43
17 86 60 43 79 39 132 -28 25 -32 46 -64 46 -70 0 -7 -16 -21 -36 -30 -65 -31
-38 -50 73 -52 74 -1 93 5 93 31 0 36 -108 178 -136 178 -22 0 -26 19 -14 73
6 30 8 60 5 68 -3 9 -38 21 -89 32 -100 20 -120 21 -134 5z"/>
<path d="M10440 28904 c-64 -22 -320 -148 -352 -174 -16 -12 -28 -31 -28 -42
0 -33 47 -17 170 57 139 84 192 107 224 99 34 -8 118 32 114 55 -4 22 -70 25
-128 5z"/>
<path d="M21510 28900 c0 -11 95 -88 128 -103 16 -7 26 -7 34 1 16 16 -10 43
-81 81 -61 32 -81 38 -81 21z"/>
<path d="M9448 28835 c-75 -50 -110 -90 -106 -119 4 -25 45 -41 82 -32 21 5
26 12 26 38 0 21 13 49 41 86 24 31 37 58 32 63 -5 5 -36 -10 -75 -36z"/>
<path d="M13630 28870 c-21 -13 -6 -26 82 -69 84 -42 118 -83 118 -143 0 -30
-7 -46 -29 -69 -40 -39 -70 -37 -166 11 -82 40 -140 51 -163 28 -7 -7 -12 -41
-12 -84 0 -78 -7 -90 -59 -100 -35 -7 -48 -21 -34 -35 5 -5 46 -18 90 -29 85
-20 133 -39 133 -51 0 -15 -41 -21 -200 -29 -189 -10 -223 -16 -245 -40 -14
-16 -14 -18 1 -31 38 -31 324 -15 462 26 68 20 122 67 122 106 0 33 -16 44
-80 53 -103 15 -90 44 24 57 98 10 163 45 216 114 75 97 96 181 51 204 -9 5
-37 12 -63 15 -29 4 -60 17 -78 32 -46 40 -134 57 -170 34z"/>
<path d="M11610 28851 c-64 -20 -110 -57 -93 -75 26 -26 173 28 173 64 0 15
-6 20 -27 19 -16 0 -39 -4 -53 -8z"/>
<path d="M9803 28715 c-25 -24 -42 -49 -38 -55 10 -16 55 -12 101 9 49 22 58
34 50 67 -5 19 -13 24 -38 24 -23 0 -42 -11 -75 -45z"/>
<path d="M21856 28741 c-4 -6 30 -34 77 -64 46 -30 97 -71 114 -92 23 -28 42
-40 70 -44 35 -6 38 -9 41 -41 5 -48 18 -60 63 -60 47 0 51 18 9 42 -25 14
-28 21 -24 50 12 76 -83 156 -221 187 -50 10 -97 22 -106 26 -10 3 -20 2 -23
-4z"/>
<path d="M9281 28664 c-19 -14 -22 -23 -18 -53 l4 -36 -36 3 c-75 7 -381 -174
-381 -225 0 -18 48 -17 122 3 33 8 82 16 109 16 41 1 48 4 44 18 -6 20 28 53
115 110 110 72 133 102 89 113 -17 5 -19 9 -10 26 23 42 5 54 -38 25z"/>
<path d="M9495 28607 c-57 -36 -106 -74 -115 -90 -14 -27 -14 -29 13 -53 51
-44 188 -25 240 34 23 26 13 32 -64 39 -32 3 -59 9 -59 13 0 18 32 32 59 27
41 -9 63 11 59 53 -2 21 -9 36 -18 37 -8 2 -60 -25 -115 -60z"/>
<path d="M9868 28622 c-98 -52 -148 -92 -148 -116 0 -37 68 -7 189 84 45 34
81 66 81 71 0 19 -38 7 -122 -39z"/>
<path d="M10861 28627 c-17 -21 -3 -27 66 -27 47 0 63 3 63 14 0 8 -7 17 -16
20 -29 11 -101 6 -113 -7z"/>
<path d="M10687 28556 c-52 -34 -81 -46 -125 -52 -73 -8 -106 -26 -121 -63
-29 -70 7 -99 85 -66 48 20 188 114 237 158 81 75 27 91 -76 23z"/>
<path d="M8933 28541 c-43 -31 -86 -84 -76 -94 17 -18 143 73 143 104 0 27
-21 24 -67 -10z"/>
<path d="M20409 28473 c-16 -19 -17 -198 -2 -268 8 -34 13 -40 34 -39 13 0 34
4 46 8 18 6 22 4 17 -7 -3 -9 6 -23 21 -35 l27 -21 -27 -7 c-38 -9 -154 12
-231 42 -36 15 -67 24 -70 21 -7 -7 45 -55 81 -74 57 -31 129 -43 253 -43 101
0 124 3 129 15 8 23 -23 51 -99 89 -53 27 -64 36 -49 41 32 10 36 43 10 78
-15 20 -22 43 -21 64 3 37 -14 75 -54 122 -29 35 -45 39 -65 14z"/>
<path d="M10200 28418 c-95 -57 -115 -131 -46 -165 44 -21 98 -11 125 23 23
30 18 52 -14 60 l-23 6 30 43 c50 71 17 86 -72 33z"/>
<path d="M8368 28254 c-47 -37 -58 -51 -58 -75 0 -25 -4 -29 -28 -29 -41 0
-121 -26 -143 -46 -28 -25 -24 -51 8 -57 37 -7 89 16 98 42 l7 22 32 -21 c43
-26 82 -25 123 3 61 41 51 67 -25 67 l-44 0 51 57 c47 52 63 83 44 83 -5 0
-34 -21 -65 -46z"/>
<path d="M9843 28260 c-52 -31 -43 -46 30 -52 34 -3 97 -3 140 0 94 6 101 22
22 51 -72 27 -150 27 -192 1z"/>
<path d="M22830 28250 c0 -6 14 -29 30 -52 51 -70 35 -79 -35 -18 -49 42 -85
52 -85 23 0 -10 34 -50 75 -89 60 -57 75 -77 75 -100 0 -48 62 -130 250 -332
104 -113 1066 -1039 1190 -1146 101 -87 150 -103 150 -49 0 28 0 28 81 -3 73
-28 101 -4 57 51 -27 34 -92 64 -139 65 -58 0 -177 80 -429 289 -182 151 -371
322 -558 505 -191 187 -269 278 -299 346 -12 27 -46 70 -87 107 -60 57 -64 62
-36 57 47 -10 38 20 -28 95 -73 82 -93 113 -97 148 -2 18 -19 43 -50 70 -47
43 -65 52 -65 33z"/>
<path d="M9595 28201 c-48 -22 -83 -57 -69 -71 22 -22 149 39 149 70 0 22 -35
22 -80 1z"/>
<path d="M17384 28205 c-21 -54 70 -152 197 -214 181 -87 352 -109 476 -62 71
27 86 24 167 -28 28 -17 60 -31 72 -31 26 0 67 46 97 107 20 42 20 43 1 64
-42 48 -201 99 -310 99 -84 0 -99 -13 -99 -87 l0 -58 -87 -3 c-106 -3 -229 23
-318 68 -66 33 -101 73 -81 93 11 11 33 8 232 -36 55 -12 87 -4 69 18 -47 56
-399 116 -416 70z m870 -171 c20 -8 21 -38 1 -54 -18 -15 -68 0 -110 35 l-30
24 62 1 c34 0 68 -3 77 -6z"/>
<path d="M19935 28202 c-102 -35 -148 -91 -110 -132 30 -33 78 -26 117 16 18
20 63 51 101 70 37 19 67 38 67 43 0 25 -106 27 -175 3z"/>
<path d="M9316 28095 c-71 -43 -145 -97 -169 -123 -34 -37 0 -32 90 12 105 53
169 105 160 129 -9 23 -15 22 -81 -18z"/>
<path d="M18867 28049 c-21 -5 -59 -21 -85 -36 -43 -26 -56 -28 -182 -31 -146
-4 -170 -13 -170 -59 0 -36 17 -63 71 -114 46 -43 49 -49 49 -97 0 -49 -2 -52
-42 -79 -37 -24 -53 -47 -106 -153 -47 -93 -65 -141 -69 -182 -5 -54 -3 -60
41 -135 56 -93 58 -113 15 -113 -36 0 -137 -51 -169 -85 -33 -36 -21 -61 79
-167 l90 -95 -62 -19 c-34 -10 -81 -33 -104 -51 -24 -18 -51 -33 -60 -33 -9 0
-40 18 -69 41 -64 49 -117 58 -122 21 -2 -14 8 -41 25 -65 26 -38 28 -49 25
-121 -1 -54 3 -89 13 -110 l15 -31 -31 35 c-16 19 -32 46 -35 60 -17 80 -85
153 -182 198 -68 31 -166 35 -206 8 -34 -22 -40 -61 -33 -235 6 -171 24 -243
87 -340 22 -34 56 -93 75 -130 32 -64 68 -101 98 -101 48 0 220 -81 204 -96
-7 -7 -100 18 -298 82 -311 100 -491 128 -574 88 -68 -32 -65 -123 5 -172 45
-31 63 -60 58 -91 -3 -21 -5 -21 -70 19 -81 48 -114 51 -153 10 -31 -33 -101
-60 -154 -60 -50 -1 -110 -30 -149 -74 l-32 -37 0 36 c0 49 -24 102 -49 110
-74 23 -458 -209 -621 -376 -75 -76 -101 -87 -154 -65 l-37 16 57 53 c47 44
57 59 57 86 0 42 -58 102 -138 142 -48 23 -209 68 -249 69 -11 0 -1 -243 14
-318 5 -30 19 -66 30 -82 44 -62 22 -80 -97 -80 -143 0 -259 -52 -355 -159
-49 -55 -65 -98 -54 -151 7 -39 -2 -60 -26 -60 -12 0 -66 21 -122 46 -55 25
-116 46 -133 47 -68 2 -128 -75 -118 -150 7 -48 6 -49 -35 -28 -55 28 -74 98
-86 309 l-7 126 114 -51 c265 -119 303 -123 450 -52 130 63 176 116 186 217 7
72 -11 150 -48 201 -33 46 -162 148 -271 214 -102 61 -174 96 -276 131 -86 30
-124 51 -212 116 -29 21 -42 25 -77 20 -51 -7 -54 3 -18 50 37 48 32 71 -26
126 -102 96 -222 133 -400 126 -94 -5 -133 -12 -224 -41 -61 -19 -169 -45
-240 -56 -72 -12 -173 -35 -225 -52 -260 -85 -592 -255 -956 -489 -300 -193
-411 -259 -599 -353 -170 -85 -279 -125 -537 -196 -295 -82 -317 -91 -376
-156 -135 -148 -446 -673 -468 -793 -11 -55 5 -120 37 -156 75 -86 212 -69
463 56 65 33 119 58 121 56 4 -3 -35 -221 -40 -226 -7 -7 -189 -54 -318 -82
-76 -16 -153 -38 -172 -50 -97 -60 -257 -311 -291 -457 -20 -89 -60 -167 -103
-205 l-35 -31 -174 5 c-324 10 -392 -10 -597 -182 -106 -89 -153 -117 -226
-136 -61 -16 -159 -13 -189 6 -27 17 3 63 120 184 70 73 120 133 120 144 0 11
-20 46 -45 78 -57 72 -57 89 -4 241 37 105 41 130 44 223 3 124 31 254 77 349
25 53 59 95 170 207 76 78 138 150 138 159 0 10 -21 38 -47 62 l-48 44 35 30
c19 17 54 48 78 68 23 21 42 45 42 54 0 19 -128 93 -177 103 -49 9 -121 -20
-238 -97 -136 -90 -234 -189 -328 -331 -193 -290 -228 -414 -144 -506 29 -31
29 -114 1 -162 -17 -29 -26 -35 -52 -34 -17 1 -43 11 -58 23 -41 32 -84 27
-138 -16 -54 -45 -126 -137 -126 -163 0 -29 -25 -47 -76 -55 -87 -13 -168
-128 -149 -213 9 -44 -27 -72 -163 -128 -196 -82 -226 -118 -158 -191 33 -36
37 -38 113 -41 64 -4 83 -9 106 -28 34 -29 40 -29 96 -4 54 25 55 25 84 -4 19
-19 39 -25 93 -30 158 -14 361 -63 421 -102 41 -26 10 -52 -88 -73 -96 -21
-276 -40 -304 -33 -25 7 -33 18 -50 65 -11 31 -26 62 -33 69 -16 16 -20 11
-102 -104 -85 -119 -90 -122 -134 -75 -49 54 -110 78 -202 79 -73 1 -77 -1
-110 -33 -20 -19 -51 -66 -71 -106 -44 -89 -42 -117 15 -260 69 -171 78 -297
31 -448 -40 -129 -144 -306 -277 -467 -83 -101 -100 -101 -238 -8 -49 33 -105
65 -124 70 -35 9 -78 43 -249 194 -46 41 -113 89 -150 107 -58 29 -75 33 -141
32 -84 0 -173 -29 -208 -66 -11 -12 -40 -67 -62 -122 -109 -262 -234 -471
-377 -630 -212 -235 -247 -294 -262 -440 -12 -118 -40 -188 -113 -286 l-60
-81 29 -30 c53 -56 144 -118 183 -124 52 -8 62 -35 68 -175 4 -102 2 -120 -16
-156 -25 -47 -162 -179 -280 -267 l-82 -62 -106 -11 c-86 -9 -119 -18 -179
-47 -113 -53 -164 -92 -185 -140 -10 -22 -51 -87 -92 -143 -89 -121 -147 -228
-183 -342 -34 -104 -72 -145 -187 -199 -149 -71 -239 -95 -357 -94 -121 1
-141 -6 -201 -75 l-41 -48 5 100 c3 55 8 170 11 255 15 404 40 745 84 1150 44
396 43 390 31 390 -34 0 -483 -247 -870 -478 -375 -224 -667 -427 -722 -503
-31 -41 -104 -531 -178 -1189 -69 -617 -85 -905 -85 -1570 1 -529 7 -713 41
-1140 143 -1826 616 -3676 1380 -5399 122 -274 336 -713 417 -854 61 -107 62
-109 94 -104 17 3 116 46 220 95 223 107 412 190 818 359 319 132 525 227 564
260 l24 19 -96 230 c-53 126 -145 347 -206 491 -94 225 -247 608 -326 820
l-24 63 22 -4 c101 -21 169 -40 172 -50 106 -353 460 -1385 515 -1504 15 -32
25 -42 43 -42 56 0 755 233 775 259 7 9 10 28 7 43 -3 16 -8 43 -11 60 l-6 33
27 -25 c41 -38 73 -110 86 -192 24 -150 -10 -432 -77 -638 -32 -98 -37 -129
-38 -210 -1 -95 -1 -96 51 -202 86 -178 245 -421 470 -720 176 -234 263 -381
298 -504 25 -85 71 -172 121 -228 79 -87 139 -242 154 -392 11 -125 38 -200
112 -320 184 -298 186 -310 68 -459 -96 -122 -102 -136 -116 -280 -18 -180
-17 -259 5 -347 47 -184 161 -348 528 -759 216 -242 381 -450 552 -695 68 -97
150 -209 181 -248 96 -118 282 -290 550 -507 309 -251 449 -370 598 -512 165
-156 266 -219 442 -277 124 -41 256 -67 805 -161 455 -77 490 -82 667 -87 204
-5 295 4 443 43 113 29 174 56 300 131 92 55 127 72 211 104 46 17 93 67 123
130 21 45 26 71 27 139 0 69 4 86 19 97 25 18 129 40 367 77 l203 32 0 135 c0
125 -2 139 -26 190 -15 30 -58 90 -97 132 -71 77 -102 124 -102 152 0 26 63
68 195 131 256 122 509 215 773 285 209 54 267 84 370 186 103 103 121 142
122 251 0 106 -26 307 -53 403 -20 70 -22 109 -16 243 5 105 -20 149 -136 241
-72 58 -176 244 -191 344 -4 24 -1 100 7 169 15 151 12 162 -76 210 -33 19
-70 45 -82 58 -19 21 -20 29 -11 62 24 89 102 206 148 222 46 15 77 56 137
176 89 177 132 227 278 320 139 89 205 144 410 346 105 102 227 213 272 247
46 33 190 125 320 203 555 332 643 402 929 744 83 99 184 218 223 265 211 247
514 798 631 1147 57 173 130 548 130 674 0 75 -7 84 -66 97 -70 14 -160 -4
-258 -52 -137 -68 -378 -141 -716 -220 -229 -52 -906 -176 -967 -176 -35 0
-45 7 -121 87 -45 49 -89 102 -97 120 -19 40 -19 126 0 163 18 35 49 45 117
37 58 -7 141 8 159 29 8 10 33 14 84 14 86 0 120 13 224 83 85 57 183 97 240
97 70 0 190 39 324 104 72 36 164 73 202 82 127 30 183 55 308 138 133 87 159
100 342 171 189 74 385 171 428 213 29 28 43 54 59 110 32 111 52 127 268 220
218 94 253 106 286 98 58 -15 172 44 224 115 17 24 38 68 46 98 23 79 28 83
90 75 103 -12 184 43 204 140 14 70 51 108 166 172 48 27 105 65 128 85 36 32
41 41 40 78 -1 22 0 41 2 41 3 0 203 29 447 65 882 131 1030 163 1265 275 404
193 713 540 918 1030 l23 55 1 -41 c0 -75 92 -177 250 -279 180 -116 302 -108
498 35 40 29 75 51 78 48 2 -3 -2 -128 -11 -279 -8 -151 -15 -311 -15 -357 0
-78 1 -83 25 -94 19 -9 48 -8 121 1 53 7 97 11 99 9 2 -2 24 -61 50 -133 56
-154 151 -372 199 -458 19 -34 62 -100 95 -145 71 -99 136 -229 181 -362 40
-120 117 -269 188 -368 124 -171 172 -247 178 -281 17 -100 175 -363 283 -472
150 -149 260 -126 325 69 31 93 64 143 132 198 60 50 83 100 84 182 0 92 17
148 56 186 19 18 41 49 49 70 28 66 38 253 32 601 -5 348 -13 445 -52 640 -23
115 -30 170 -26 207 0 10 20 27 44 39 23 12 82 62 132 111 l90 90 295 14 c485
22 521 33 541 154 10 64 -28 780 -65 1212 -13 144 -12 148 10 215 29 85 30
157 4 224 -26 66 -20 77 92 152 111 74 144 103 171 157 19 36 36 51 89 80 37
19 70 32 73 28 23 -22 13 -1851 -11 -2117 l-6 -64 154 7 c512 22 713 37 730
54 18 18 60 557 75 947 4 105 9 178 11 163 2 -15 15 -37 30 -49 23 -18 38 -20
104 -17 107 4 117 14 208 209 16 35 28 53 26 39 -3 -14 -8 -70 -11 -125 -3
-55 -24 -266 -46 -470 -43 -406 -66 -681 -57 -691 12 -11 146 -23 364 -30
l222 -7 6 -116 c15 -273 36 -401 66 -401 6 0 20 20 31 45 11 25 26 45 33 45
21 0 131 -122 155 -173 13 -28 28 -88 36 -152 16 -123 38 -206 106 -405 53
-157 60 -217 31 -243 -29 -26 -48 -20 -73 21 -35 55 -66 81 -146 119 -50 24
-93 54 -137 99 -36 36 -73 64 -84 64 -31 0 -213 -94 -281 -146 -101 -76 -134
-158 -95 -241 9 -19 53 -67 98 -108 201 -182 303 -269 334 -283 28 -14 35 -25
53 -87 34 -118 60 -182 86 -217 34 -45 76 -138 103 -228 28 -93 68 -173 114
-229 20 -23 40 -60 46 -81 14 -50 50 -67 167 -76 l92 -7 -2 -55 c-2 -53 0 -57
25 -66 40 -14 91 26 208 161 147 169 358 483 348 514 -6 17 -180 -188 -281
-330 -92 -130 -139 -181 -167 -181 -41 0 -18 84 46 172 26 35 53 57 90 75 39
18 68 43 108 92 72 89 116 162 116 195 0 47 -31 27 -85 -54 -41 -61 -59 -79
-100 -99 -27 -12 -71 -41 -97 -63 l-48 -39 0 34 c0 19 18 118 40 221 22 102
40 211 40 241 0 55 0 56 -65 118 -49 48 -65 70 -65 91 0 16 -10 36 -26 51 -26
24 -27 26 -20 118 6 77 4 96 -8 106 -11 9 -20 10 -35 2 -29 -16 -41 -13 -41 9
0 31 28 80 70 125 21 22 50 58 64 79 35 53 34 120 -4 261 -40 146 -58 253 -75
443 -8 93 -20 175 -30 200 -21 51 -72 98 -122 111 -21 6 -64 17 -95 26 -91 24
-111 48 -153 180 -45 139 -69 179 -111 183 -19 2 -36 -3 -44 -12 -7 -9 -16
-16 -21 -16 -13 0 -11 118 6 398 16 262 26 348 51 424 22 69 40 78 156 78 l97
0 17 -32 c34 -67 78 -118 116 -135 l38 -17 0 -130 c0 -72 -7 -266 -15 -430 -8
-165 -14 -300 -13 -301 2 -1 80 -10 174 -19 201 -19 303 -20 338 -5 54 25 70
127 85 559 26 713 20 1701 -14 2130 -54 689 -152 1414 -277 2040 l-33 165 22
130 c61 369 59 748 -7 1125 -28 158 -231 945 -286 1109 -72 215 -192 451 -229
451 -8 0 -38 49 -69 113 -38 78 -81 144 -140 218 -111 139 -290 320 -391 395
-58 43 -88 73 -107 109 -42 77 -94 245 -128 415 -35 172 -64 244 -116 289 -47
42 -103 43 -134 4 -20 -25 -21 -37 -18 -137 2 -75 -1 -110 -8 -113 -7 -2 -17
10 -22 27 -12 33 -15 34 -83 30 -41 -1 -49 2 -67 27 -21 30 -40 88 -73 228
-12 50 -48 177 -80 284 -33 107 -58 195 -56 197 1 2 40 -60 87 -137 93 -154
137 -209 169 -209 42 0 37 52 -23 254 -30 101 -33 154 -10 163 22 8 57 -28
125 -129 96 -142 189 -222 221 -190 7 7 7 20 -1 43 -6 18 -9 34 -7 36 10 10
45 -43 55 -82 8 -32 31 -65 92 -131 44 -49 125 -148 180 -221 128 -172 169
-199 169 -115 0 51 -33 166 -82 287 -91 223 -193 373 -391 574 -122 124 -210
199 -254 217 -35 15 -83 89 -147 227 -52 115 -127 241 -195 331 -119 158 -261
438 -261 516 0 22 -11 65 -25 96 -78 177 -421 622 -860 1119 -193 218 -274
314 -290 346 l-14 25 58 -15 c50 -13 57 -18 54 -36 -3 -14 9 -36 36 -67 48
-54 225 -192 240 -187 16 6 -126 185 -202 256 -36 34 -119 98 -184 142 -84 57
-159 120 -258 218 -171 169 -365 307 -409 290 -12 -5 -14 -12 -6 -32 5 -14 6
-25 1 -25 -19 0 -61 43 -61 62 0 39 -50 101 -68 83 -3 -3 0 -17 7 -31 14 -32
9 -39 -19 -24 -11 6 -23 24 -27 41 -7 35 -16 42 -68 49 -36 4 -40 8 -43 35 -4
35 -19 47 -43 34 -24 -12 -29 -11 -29 5 0 27 -79 84 -208 149 -72 37 -133 63
-136 58 -3 -5 20 -31 52 -57 84 -72 172 -156 172 -166 0 -4 -16 -8 -35 -8 -43
0 -54 -20 -30 -56 23 -36 73 -54 151 -54 87 0 134 -25 326 -174 141 -109 176
-132 185 -122 3 3 -3 19 -13 36 -22 37 -11 63 29 68 38 5 61 -35 54 -90 -4
-24 -1 -58 6 -77 22 -63 97 -94 97 -41 0 12 -12 46 -27 76 -14 30 -24 56 -21
59 26 26 98 -101 98 -172 0 -40 5 -49 54 -99 60 -59 103 -74 86 -28 -12 31
-12 34 0 34 22 0 80 -64 90 -99 11 -43 97 -148 325 -401 306 -339 615 -721
748 -925 88 -136 104 -171 89 -195 -15 -25 -2 -63 82 -227 84 -166 161 -294
245 -413 81 -113 122 -183 226 -388 93 -182 136 -234 243 -292 151 -83 346
-309 458 -532 39 -78 100 -255 91 -265 -7 -7 -135 143 -186 217 -28 40 -54 88
-57 107 -14 77 -180 212 -243 200 -33 -7 -57 15 -143 133 -65 88 -81 104 -130
124 -33 14 -38 14 -58 -2 -39 -31 -37 -114 7 -257 3 -11 -15 8 -41 42 -58 77
-173 183 -197 183 -13 0 -19 -7 -19 -21 0 -29 33 -158 85 -330 48 -155 89
-324 100 -400 6 -51 58 -145 107 -196 36 -38 99 -70 151 -78 28 -4 40 -12 47
-30 11 -29 39 -45 78 -45 51 0 57 19 45 128 -11 99 -8 162 8 162 15 0 26 -32
72 -210 25 -96 68 -241 94 -322 27 -82 47 -148 46 -148 -1 0 -55 14 -120 31
-234 60 -644 125 -743 117 -45 -3 -45 -3 -43 -38 1 -19 45 -179 98 -355 300
-997 506 -1995 639 -3086 83 -676 114 -1664 85 -2727 -15 -593 -19 -638 -63
-752 -20 -52 -48 -125 -62 -162 -31 -82 -94 -181 -129 -204 -42 -28 -54 -6
-65 122 -10 116 -35 228 -69 307 -19 43 -21 68 -21 230 0 547 -52 1375 -131
2082 -75 675 -161 1205 -315 1950 -41 198 -77 372 -80 388 l-6 27 64 1 c35 0
132 4 216 7 131 6 156 10 167 25 24 34 -104 492 -351 1255 -113 347 -280 833
-312 906 -39 87 -139 110 -597 141 -528 34 -1403 58 -1437 39 -19 -11 -16 -24
142 -524 204 -646 317 -1032 425 -1450 36 -140 73 -279 81 -307 l15 -53 303 0
303 0 36 -137 c207 -788 385 -1985 472 -3173 34 -472 34 -469 18 -502 -13 -26
-14 -43 -4 -113 15 -110 8 -126 -71 -166 -94 -47 -127 -75 -152 -132 -28 -61
-54 -87 -162 -159 l-80 -54 -18 155 c-188 1682 -626 3548 -1213 5171 -155 429
-554 1431 -583 1463 -10 12 -1306 -30 -1622 -52 -60 -4 -111 -11 -115 -14 -11
-12 16 -190 83 -546 139 -735 209 -1165 284 -1751 63 -497 150 -1347 169
-1660 45 -732 77 -2299 68 -3363 -5 -649 -5 -659 -25 -673 -12 -8 -60 -48
-109 -90 -144 -124 -218 -150 -313 -107 -59 26 -164 106 -197 149 -23 31 -25
40 -20 97 7 76 -9 115 -65 160 -46 37 -46 31 0 187 147 496 232 1222 232 1980
0 1146 -200 2485 -555 3715 -246 853 -569 1613 -937 2206 -233 375 -641 811
-953 1021 -188 126 -507 261 -735 312 -351 77 -708 58 -1970 -110 -447 -59
-754 -104 -777 -114 -13 -5 -20 -16 -18 -27 2 -10 14 -67 25 -128 12 -60 53
-238 91 -395 155 -635 331 -1412 464 -2050 36 -173 67 -325 70 -337 5 -22 2
-23 -53 -23 -81 0 -142 -21 -247 -84 -89 -54 -105 -58 -105 -30 0 30 -191 932
-216 1022 -5 18 -13 22 -46 22 -71 0 -879 -128 -1238 -196 -129 -24 -140 -28
-140 -48 0 -42 82 -511 275 -1576 173 -955 273 -1568 260 -1590 -18 -30 -615
-140 -756 -140 l-55 0 -17 88 c-19 94 -127 682 -127 688 0 2 38 4 84 4 45 0
98 5 117 12 57 20 144 75 204 130 89 81 112 144 95 257 -22 137 -75 207 -255
331 -59 41 -142 105 -184 142 -42 37 -105 94 -141 126 -36 32 -75 65 -87 73
-18 12 -26 40 -47 162 -14 81 -26 157 -26 168 0 10 11 37 25 58 13 22 30 61
36 88 18 74 34 91 125 135 122 58 147 110 74 152 -30 18 -50 21 -145 20 -60
-1 -129 -6 -152 -12 -24 -5 -43 -7 -43 -4 0 18 -94 511 -101 530 -10 26 6 26
-244 -14 -176 -29 -861 -164 -1018 -201 -68 -16 -117 -33 -133 -47 l-26 -22
33 -202 32 -203 -64 -65 c-75 -77 -158 -148 -164 -142 -3 2 -25 128 -50 278
-26 151 -51 280 -56 286 -10 13 -3 14 -244 -33 -325 -63 -1497 -328 -2064
-468 -80 -19 -149 -35 -154 -35 -19 0 -47 91 -62 204 -20 143 -45 226 -85 285
-17 24 -35 63 -41 85 -26 100 -64 128 -179 127 -146 0 -205 -57 -274 -266 -30
-89 -42 -175 -32 -227 3 -19 21 -60 40 -90 46 -76 55 -107 66 -218 13 -120 31
-184 82 -285 l40 -80 47 -417 c42 -379 45 -418 30 -418 -27 0 -56 74 -78 200
-28 157 -37 186 -72 221 -20 21 -29 40 -29 64 0 46 -12 74 -49 112 -16 18 -46
63 -65 100 -37 74 -56 96 -99 112 -73 28 -267 431 -267 553 0 24 9 81 20 128
27 119 26 148 -11 203 -46 70 -133 145 -177 153 -58 11 -321 -47 -436 -96 -52
-22 -97 -40 -100 -40 -3 0 -12 13 -21 30 -10 19 -27 32 -52 39 -20 6 -52 23
-72 39 -20 16 -50 36 -67 45 -81 42 -281 48 -345 11 -24 -14 -47 -46 -86 -119
-62 -116 -116 -175 -193 -213 -49 -24 -65 -27 -144 -25 -73 2 -99 -1 -145 -20
-136 -55 -333 -223 -400 -342 -129 -227 -258 -365 -342 -365 -54 0 -84 -14
-142 -68 -87 -80 -74 -78 -168 -28 -160 85 -209 100 -336 98 l-113 -1 -16 31
c-13 26 -15 48 -10 116 7 78 5 88 -19 137 -33 68 -88 118 -156 140 -30 10 -55
19 -57 20 -2 2 17 43 41 92 57 113 77 180 77 262 0 81 26 131 123 238 170 187
235 281 342 488 99 191 144 262 205 319 48 45 65 51 125 47 67 -6 206 -102
341 -236 68 -68 93 -86 137 -100 30 -9 78 -35 108 -58 81 -61 141 -97 161 -97
76 0 213 140 378 386 142 212 171 287 190 499 17 176 8 238 -51 353 -66 130
-64 172 8 172 46 0 115 -38 193 -104 71 -61 96 -68 127 -33 30 32 71 101 79
131 l6 26 36 -22 c74 -45 279 -32 426 28 34 14 88 45 120 71 84 64 127 81 245
92 150 14 215 49 446 242 89 74 131 84 355 84 163 0 188 -2 212 -18 25 -18 30
-18 82 -3 67 20 116 71 174 184 49 95 70 155 81 238 12 81 49 141 137 223 82
77 139 110 203 118 42 5 52 3 57 -11 10 -26 -12 -59 -114 -169 -155 -168 -232
-302 -232 -404 0 -36 6 -52 30 -80 21 -23 30 -44 30 -67 0 -19 7 -39 15 -46
10 -8 62 -16 133 -20 64 -4 128 -12 140 -19 15 -8 37 -42 57 -85 18 -40 41
-76 50 -80 30 -11 60 -6 238 39 200 50 327 70 405 62 62 -7 77 -17 85 -57 5
-22 17 -35 48 -51 62 -31 136 -23 213 24 32 20 84 41 115 47 152 30 154 32
211 206 66 205 139 325 225 366 41 20 45 20 68 5 14 -9 31 -35 39 -58 36 -107
178 -119 243 -21 42 63 107 222 113 273 4 44 2 48 -32 74 -50 38 -45 63 17 94
86 42 241 38 476 -14 97 -21 136 -10 253 76 92 69 101 103 44 180 -52 70 -88
83 -240 87 -113 3 -489 -27 -547 -44 -13 -3 -24 17 -53 91 -43 112 -45 163
-13 237 13 29 36 91 52 138 59 180 78 199 370 360 251 138 329 194 371 265 32
56 31 100 -5 157 -31 49 -71 81 -112 91 -38 9 -132 -17 -228 -64 -85 -42 -161
-107 -225 -192 -34 -47 -114 -99 -306 -201 -182 -97 -278 -167 -383 -275 -154
-160 -171 -197 -161 -361 11 -190 -16 -240 -164 -311 -106 -50 -176 -118 -281
-274 -108 -159 -181 -254 -237 -305 -48 -44 -48 -44 -54 -20 -18 76 -138 51
-246 -51 -59 -55 -98 -70 -121 -46 -14 14 -13 30 12 164 42 225 70 369 114
583 44 209 50 267 27 276 -16 6 -124 -31 -316 -109 -217 -89 -274 -85 -299 21
-22 90 30 204 244 528 62 94 127 182 144 196 38 33 112 61 261 100 420 110
591 190 1109 521 394 251 659 394 919 495 146 58 217 78 328 92 146 19 209 33
284 63 164 65 471 39 524 -45 8 -13 6 -25 -7 -47 -32 -55 -13 -139 42 -182 21
-17 35 -20 76 -15 47 6 55 3 126 -39 41 -24 124 -63 183 -85 121 -45 217 -95
322 -169 90 -63 191 -155 210 -193 14 -26 13 -31 -5 -57 -28 -39 -74 -72 -180
-130 l-92 -50 -147 70 c-232 111 -349 143 -417 115 -60 -25 -46 -77 47 -169
54 -54 60 -87 46 -250 -11 -132 -11 -141 7 -175 26 -48 169 -125 223 -120 51
4 76 49 74 136 l-1 64 37 -6 c20 -3 73 -24 118 -46 86 -43 125 -48 179 -26 52
22 69 56 61 122 -5 41 -2 64 10 90 26 54 197 184 242 184 7 0 39 -13 72 -30
33 -16 66 -30 74 -30 17 0 79 67 100 109 23 43 20 69 -15 157 -37 91 -35 142
4 182 21 20 31 23 61 18 48 -9 52 -20 19 -62 -38 -51 -39 -125 -1 -182 72
-108 207 -120 305 -27 24 23 43 49 43 57 0 33 153 149 309 235 53 29 102 53
110 53 7 0 28 -13 47 -30 69 -60 134 -49 363 61 68 32 137 59 153 59 16 0 63
-18 104 -39 42 -22 81 -38 88 -35 21 8 38 54 43 116 7 73 1 97 -43 153 -19 26
-33 50 -30 53 23 22 206 -17 485 -104 258 -80 379 -102 409 -72 22 22 14 82
-15 120 -33 43 -106 98 -183 139 -74 40 -150 107 -190 169 -52 82 -71 158 -77
311 -7 175 -5 179 86 179 89 0 109 -16 167 -132 29 -58 61 -104 90 -131 111
-102 137 -133 205 -234 90 -136 150 -207 210 -250 72 -51 86 -89 103 -280 17
-187 28 -217 83 -232 68 -19 137 36 163 128 15 55 12 200 -6 261 -12 42 -28
65 -74 109 -32 31 -68 77 -80 104 -24 51 -59 85 -97 92 -12 3 -35 7 -49 10
-37 8 -70 48 -117 144 -31 65 -58 102 -108 151 -77 76 -89 96 -89 145 l0 37
41 -52 c45 -57 87 -87 136 -96 38 -7 83 2 83 17 0 5 -22 39 -50 75 -34 44 -50
75 -50 94 0 58 77 79 220 60 167 -22 180 -23 180 -14 -1 5 -62 50 -138 101
-148 100 -242 177 -242 198 0 20 67 64 198 129 l114 57 -68 47 c-89 61 -116
106 -111 183 6 107 107 259 171 259 40 0 51 24 39 82 -10 52 0 78 33 78 21 0
17 18 -8 38 -90 72 -153 150 -135 168 3 4 51 2 104 -4 116 -13 178 -4 249 33
34 17 82 31 143 39 107 14 134 31 100 62 -18 16 -38 19 -133 21 -61 1 -128 -2
-149 -8z m-666 -1819 c38 -40 62 -73 69 -99 8 -29 37 -68 112 -146 100 -105
101 -106 52 -80 -64 34 -83 53 -146 144 -29 42 -78 109 -110 149 -32 40 -58
78 -58 83 0 21 26 5 81 -51z m420 -504 c27 -38 51 -84 55 -102 8 -45 -12 -123
-41 -159 l-23 -30 -6 25 c-3 14 -7 68 -9 120 -5 101 -30 191 -69 245 l-21 30
33 -30 c18 -16 54 -61 81 -99z m-5307 -670 c22 -9 37 -24 44 -45 10 -29 9 -32
-31 -59 -23 -16 -100 -62 -172 -102 -243 -137 -440 -286 -495 -376 -12 -19
-28 -62 -36 -95 -8 -33 -40 -115 -71 -182 -72 -153 -74 -187 -19 -303 62 -130
106 -173 183 -175 l28 -1 -33 -11 c-83 -31 -147 -139 -140 -238 3 -39 11 -65
24 -80 13 -14 19 -35 18 -63 -1 -42 -40 -132 -68 -155 -22 -18 -46 10 -81 95
-50 119 -64 125 -177 68 -135 -68 -192 -140 -278 -354 -62 -152 -85 -182 -155
-200 -84 -22 -131 -45 -169 -82 -22 -21 -46 -38 -54 -38 -7 0 -48 33 -91 74
-56 53 -88 76 -113 81 -42 8 -153 -10 -387 -64 -156 -35 -178 -38 -206 -27
-56 24 -155 154 -155 204 0 43 37 50 181 38 112 -9 139 -1 212 62 55 47 82 57
136 48 73 -11 126 17 231 123 72 73 111 122 160 206 77 133 149 211 233 255
91 48 175 110 238 177 80 84 92 112 85 192 -20 220 -20 215 7 275 50 108 148
185 424 329 247 129 323 184 398 287 82 111 236 175 329 136z m-4028 -621 c18
-14 15 -19 -70 -98 -63 -58 -88 -88 -84 -99 5 -11 31 -20 80 -28 40 -7 76 -16
80 -19 12 -10 -63 -80 -191 -178 -63 -48 -123 -100 -134 -115 -19 -25 -19 -31
-7 -67 28 -86 0 -294 -80 -583 -49 -180 -51 -222 -10 -273 17 -21 30 -44 30
-51 0 -8 -34 -40 -76 -73 -86 -68 -112 -98 -129 -150 -10 -29 -21 -39 -53 -51
-48 -16 -93 -9 -205 34 -45 17 -88 26 -126 26 -51 0 -63 4 -104 36 -51 39 -43
39 -188 17 -31 -4 -42 0 -70 25 l-34 31 25 9 c14 5 68 17 121 27 180 32 201
70 98 180 l-61 65 44 0 c73 0 99 25 164 157 25 50 52 97 60 104 11 9 26 6 73
-15 71 -31 82 -32 138 -5 108 52 189 249 148 359 -33 86 -31 102 14 154 39 45
47 65 42 110 -7 78 88 237 207 346 122 112 246 164 298 125z m4080 -666 c8 -7
14 -24 12 -38 -6 -56 -122 -78 -238 -46 -166 46 -179 48 -229 38 -56 -11 -81
-4 -57 16 19 16 347 51 434 47 34 -2 69 -9 78 -17z m-2461 -96 c-28 -232 -60
-344 -107 -377 -40 -28 -138 -17 -138 16 0 4 14 21 30 38 24 24 30 40 30 73 0
27 10 58 26 87 28 50 153 220 161 220 3 0 2 -26 -2 -57z m-363 -503 c10 -67 9
-320 -1 -320 -29 0 -131 152 -131 194 1 68 25 130 60 154 48 32 64 26 72 -28z
m208 -19 c0 -25 -65 -94 -82 -89 -7 3 -14 18 -16 35 -2 24 3 36 24 52 35 27
74 28 74 2z m17371 -1818 c154 -141 288 -300 323 -383 51 -124 65 -148 117
-200 61 -63 122 -171 163 -294 38 -108 239 -884 270 -1036 79 -389 99 -890 44
-1107 l-11 -46 -48 209 c-219 945 -608 2094 -983 2907 l-36 78 44 -30 c24 -17
77 -61 117 -98z m-8677 -593 c231 -59 419 -249 556 -561 251 -568 533 -1894
632 -2964 19 -210 16 -592 -5 -699 -47 -234 -158 -425 -301 -520 -66 -44 -204
-91 -314 -106 -90 -13 -196 -10 -213 7 -13 13 -40 166 -124 703 -168 1065
-407 2365 -602 3265 -35 165 -86 410 -113 545 -56 278 -56 275 25 311 96 43
329 52 459 19z m-9742 -225 c4 -22 7 -64 7 -93 2 -113 50 -156 104 -92 14 17
31 30 37 30 22 0 30 -49 19 -129 -12 -87 1 -163 41 -241 l20 -40 -27 -6 c-16
-4 -82 -22 -148 -40 -66 -17 -122 -30 -124 -28 -2 2 -8 52 -12 111 -8 92 -13
117 -41 173 -30 59 -33 72 -33 155 1 112 23 184 68 220 19 15 42 24 57 23 20
-3 26 -10 32 -43z m-1620 -93 c93 -80 214 -144 272 -144 26 0 67 13 116 36 53
26 88 36 122 36 27 0 81 11 120 25 87 30 117 31 152 4 57 -44 73 -106 86 -324
11 -193 40 -318 104 -449 52 -108 99 -164 172 -211 59 -38 94 -85 94 -127 0
-19 13 -40 40 -67 45 -45 84 -123 125 -251 53 -168 42 -300 -27 -336 -35 -18
-37 -17 -68 56 -79 190 -197 381 -302 491 -114 118 -273 218 -407 255 -60 17
-61 18 -56 48 3 17 9 68 15 114 10 90 31 146 80 216 42 61 86 164 116 266 37
127 24 149 -76 130 -130 -25 -215 -136 -256 -334 -26 -127 -30 -132 -118 -138
-53 -4 -70 -30 -102 -158 -15 -58 -30 -108 -33 -112 -3 -3 -64 -16 -135 -28
-241 -40 -504 -111 -1001 -269 -293 -94 -316 -99 -415 -104 -58 -2 -186 -12
-285 -22 -99 -9 -220 -15 -268 -12 -79 4 -98 9 -170 45 -84 42 -159 97 -193
142 -27 36 -24 93 6 125 23 25 29 27 92 22 58 -4 88 -14 208 -72 154 -75 162
-75 226 -24 48 39 110 68 145 69 49 0 148 60 234 141 94 90 147 164 175 243
23 67 60 126 118 188 53 56 94 83 142 93 21 4 45 19 61 37 24 29 31 31 130 39
224 19 353 90 400 221 31 84 80 134 149 152 30 8 83 15 117 15 54 1 66 -3 95
-27z m9068 -254 c5 -13 19 -72 30 -133 12 -60 23 -117 26 -126 3 -11 -10 -20
-48 -32 -72 -23 -117 -52 -122 -79 -3 -13 -8 -44 -11 -70 -7 -55 -13 -61 -85
-85 -47 -16 -56 -23 -69 -56 -12 -33 -12 -42 4 -82 9 -25 38 -71 64 -103 26
-31 72 -93 101 -137 29 -44 69 -97 89 -119 36 -39 120 -86 154 -86 61 0 97
-54 97 -145 0 -45 19 -120 44 -180 22 -50 63 -271 65 -344 1 -30 8 -68 16 -85
13 -25 155 -764 155 -804 0 -34 -393 -54 -423 -22 -8 8 -25 74 -37 145 -79
463 -233 1297 -365 1972 -47 237 -85 436 -85 442 0 6 44 33 98 60 53 28 111
59 127 70 23 16 46 21 98 21 61 0 68 -2 77 -22z m-4159 -748 c39 -245 73 -457
76 -471 5 -24 -1 -28 -109 -77 -127 -58 -148 -62 -148 -31 0 11 -32 229 -71
483 l-71 463 114 114 113 114 12 -75 c7 -41 45 -275 84 -520z m-4301 567 c0
-55 -48 -152 -66 -134 -11 11 6 92 26 125 23 38 40 41 40 9z m8600 -502 c29
-151 51 -278 47 -281 -15 -15 -104 32 -154 81 -40 40 -55 65 -68 109 l-17 57
28 56 c24 47 28 66 26 127 -1 43 3 77 11 87 14 18 47 38 62 39 6 0 35 -124 65
-275z m6579 159 c39 -49 94 -227 214 -689 195 -751 454 -1985 482 -2296 l6
-76 -183 -7 c-164 -7 -225 -5 -279 10 -13 4 -18 25 -23 102 -57 807 -119 1429
-231 2322 -76 599 -77 604 -65 634 13 35 52 35 79 0z m-15359 -102 c22 -18 35
-84 18 -89 -5 -2 -42 -3 -84 -3 l-75 0 23 41 c21 38 58 68 84 69 7 0 22 -8 34
-18z m19688 -131 c105 -332 337 -1341 412 -1801 41 -246 42 -305 8 -444 -39
-159 -61 -345 -57 -491 2 -69 1 -125 -2 -125 -4 0 -20 13 -37 28 -45 42 -63
149 -82 487 -33 609 -107 1212 -240 1959 -55 312 -75 459 -65 484 5 15 8 14
24 -7 10 -13 27 -53 39 -90z m-13528 -213 c41 -30 107 -77 145 -103 141 -99
215 -186 215 -255 0 -65 -112 -153 -237 -185 -60 -16 -173 -20 -173 -7 0 8
-107 630 -116 677 -6 29 -4 28 42 -21 27 -28 83 -76 124 -106z m-9041 -17 c59
-93 286 -281 364 -302 42 -12 397 -6 480 7 l37 7 0 -112 c0 -173 18 -577 41
-891 159 -2254 789 -5086 1620 -7281 110 -292 157 -379 205 -379 22 0 518 128
759 196 168 48 276 86 282 100 11 29 -21 146 -132 484 -178 541 -418 1312
-505 1618 -30 107 -31 115 -15 132 26 29 101 51 192 57 l83 6 39 -84 c21 -46
80 -192 131 -324 161 -420 533 -1335 683 -1680 l34 -80 41 2 c60 3 1088 243
1166 272 14 6 26 18 26 28 0 33 -90 282 -175 484 -331 784 -511 1226 -814
2001 l-171 437 24 128 c13 70 29 169 35 218 44 387 7 1105 -100 1925 -30 229
-31 236 -14 288 20 64 67 119 132 154 67 37 126 43 203 24 102 -26 148 -56
371 -238 45 -37 107 -77 138 -89 31 -13 79 -38 108 -57 47 -31 53 -39 62 -86
6 -28 42 -217 81 -421 146 -761 249 -1242 431 -2012 121 -513 379 -1547 473
-1898 74 -278 180 -642 189 -651 2 -2 202 39 443 92 695 152 830 190 851 237
13 28 -10 134 -222 1052 -243 1050 -413 1829 -610 2795 -93 454 -104 510 -98
510 18 0 59 -42 79 -81 37 -74 85 -87 120 -33 20 29 38 30 95 5 62 -27 182
-45 253 -37 90 9 155 45 230 128 68 75 93 118 147 258 18 46 49 120 70 164
l37 79 11 -54 c6 -30 45 -236 86 -459 111 -594 319 -1675 391 -2030 5 -22 0
-19 -37 20 -48 52 -89 131 -89 175 -1 45 -40 133 -93 207 -26 37 -58 97 -71
135 -55 163 -215 437 -323 555 -23 26 -51 63 -60 83 -18 38 -16 60 22 230 9
39 15 90 13 115 -3 43 -4 45 -37 48 -29 3 -40 -3 -81 -46 -56 -59 -111 -149
-151 -250 -40 -101 -57 -132 -72 -132 -22 0 -84 72 -116 133 -17 33 -43 98
-57 145 -72 238 -137 342 -194 312 -36 -19 -44 -82 -26 -205 21 -145 47 -234
172 -575 146 -397 154 -416 284 -681 130 -264 175 -385 189 -513 14 -121 39
-162 208 -337 77 -81 147 -157 154 -170 10 -18 14 -84 14 -259 1 -244 8 -303
56 -500 30 -119 66 -183 152 -271 117 -120 174 -213 272 -447 111 -265 239
-425 454 -566 156 -103 241 -175 452 -384 108 -106 217 -209 244 -227 26 -19
50 -37 53 -40 9 -9 -32 -47 -105 -97 -40 -27 -73 -55 -73 -62 0 -20 61 -82
215 -218 167 -148 198 -168 267 -175 126 -12 580 75 1078 207 124 33 308 80
408 104 145 35 203 54 274 90 119 61 128 61 128 -6 0 -106 -60 -357 -136 -566
-121 -332 -298 -676 -472 -911 -93 -128 -353 -449 -470 -583 -139 -157 -190
-202 -300 -263 -238 -133 -836 -533 -957 -642 -128 -115 -244 -239 -270 -289
-18 -34 -36 -47 -151 -104 -71 -36 -146 -76 -165 -89 -67 -47 -149 -135 -159
-171 -5 -19 -39 -71 -75 -115 -38 -47 -70 -96 -76 -120 -16 -58 -23 -70 -48
-73 -72 -11 -191 -225 -191 -341 1 -86 74 -198 146 -221 l32 -11 -20 -57 c-30
-83 -34 -168 -13 -233 24 -72 95 -212 139 -274 40 -55 145 -165 158 -165 5 0
17 -14 27 -31 17 -27 19 -44 14 -118 -5 -73 -1 -105 21 -197 32 -134 56 -297
56 -383 0 -86 -23 -131 -108 -213 -98 -95 -173 -129 -369 -168 -149 -30 -404
-116 -548 -185 -161 -77 -307 -138 -377 -159 -112 -32 -105 -104 29 -284 35
-47 66 -97 69 -111 10 -46 13 -51 37 -60 14 -5 27 -20 30 -34 13 -49 -22 -183
-52 -201 -5 -4 -89 -20 -188 -36 -258 -44 -381 -71 -393 -86 -9 -9 -3 -31 19
-82 34 -76 38 -113 19 -175 -15 -49 -67 -107 -97 -107 -41 0 -129 -38 -242
-105 -134 -80 -245 -129 -326 -145 -90 -18 -403 -24 -524 -11 -57 7 -171 25
-254 41 -82 16 -280 52 -440 79 -602 105 -699 141 -890 336 -122 123 -276 256
-600 515 -425 341 -489 406 -730 755 -194 279 -320 440 -505 645 -301 333
-449 521 -510 645 -51 102 -67 220 -50 364 18 149 50 229 146 364 44 64 57
115 52 207 -5 88 -25 132 -106 235 -30 39 -70 101 -88 140 -30 61 -34 79 -34
150 0 98 -9 131 -71 268 -28 59 -52 122 -56 140 -8 45 -29 82 -68 126 -19 21
-68 107 -108 193 -100 209 -173 326 -413 658 -258 358 -398 593 -411 687 -4
31 2 66 25 135 61 187 96 431 97 678 0 186 1 182 -95 325 -26 39 -73 115 -105
170 -63 108 -98 152 -132 165 -17 7 -32 40 -72 162 -27 84 -59 189 -70 232
-24 91 -18 110 42 146 64 39 522 170 537 153 4 -4 110 -210 236 -458 125 -247
228 -451 229 -453 5 -7 945 275 1001 300 19 9 22 16 17 37 -3 14 -64 150 -135
301 -892 1890 -1546 3794 -1973 5740 -140 638 -244 1238 -345 1980 -22 162
-45 323 -51 358 -11 61 -12 63 -37 57 -59 -15 -741 -278 -1172 -453 -9 -4 -5
9 12 39 14 24 40 85 58 134 18 50 42 108 53 130 69 137 226 316 322 366 34 18
79 30 139 38 138 17 216 60 379 208 75 68 145 123 157 123 4 0 21 -22 39 -49z
m7505 -633 c21 -123 73 -425 117 -673 43 -247 79 -458 79 -468 0 -12 -21 -28
-67 -50 -62 -29 -77 -32 -163 -32 -110 0 -136 10 -216 85 -60 56 -108 83 -191
104 -118 31 -196 20 -253 -35 -22 -22 -46 -39 -54 -39 -15 0 -160 71 -188 92
-14 10 -22 50 -38 176 -12 89 -20 179 -18 199 3 36 5 38 63 55 33 10 170 43
305 73 303 69 400 95 400 106 0 5 -16 125 -35 266 -20 141 -33 263 -31 270 3
7 13 13 23 13 10 0 61 18 113 40 52 21 100 39 106 39 6 1 26 -91 48 -221z
m-3360 -250 c33 -269 89 -683 106 -780 7 -37 17 -69 24 -71 21 -8 183 22 396
73 403 97 421 94 434 -60 7 -83 63 -425 131 -802 25 -136 45 -249 45 -251 0
-3 -20 2 -45 11 -30 9 -75 41 -131 91 -123 109 -178 148 -269 192 -105 51
-191 72 -295 73 -102 1 -147 -18 -226 -96 l-52 -50 -6 28 c-3 16 -13 72 -21
124 -50 303 -143 759 -215 1057 -36 147 -119 454 -135 494 -4 10 12 30 52 62
32 26 82 67 111 92 29 25 56 45 60 45 4 0 20 -105 36 -232z m-5551 -408 c-11
-94 -16 -284 -20 -765 -8 -1010 27 -2038 88 -2565 138 -1206 374 -2393 688
-3468 9 -30 8 -33 -7 -27 -9 4 -55 15 -101 24 l-84 18 -22 59 c-60 161 -192
556 -261 779 -42 138 -78 252 -80 254 -7 7 -350 -136 -639 -267 -352 -159
-416 -177 -436 -124 -14 37 -170 611 -205 755 -25 102 -26 119 -14 131 8 7
135 70 282 139 277 132 444 222 462 250 11 17 0 83 -105 622 -131 676 -267
1571 -299 1970 -6 77 -13 168 -16 202 -4 39 -12 71 -23 85 -18 22 -18 22 -67
4 -27 -10 -176 -81 -331 -157 -305 -150 -361 -175 -370 -165 -3 3 -10 51 -16
107 -11 113 -13 104 57 342 53 184 64 240 80 397 l11 115 420 212 c231 116
421 218 422 225 1 7 7 182 12 388 l10 375 43 38 c96 85 111 92 222 93 102 2
154 14 267 62 24 11 45 19 46 18 0 0 -6 -57 -14 -126z m8493 -539 c22 -10 62
-43 88 -74 69 -81 104 -92 291 -91 126 0 160 4 210 21 33 12 60 21 61 20 1 -1
4 -18 8 -37 l6 -35 -233 -47 c-281 -57 -300 -63 -334 -93 -24 -20 -28 -30 -28
-77 1 -72 31 -121 96 -153 60 -31 113 -32 222 -4 121 30 177 63 204 121 20 41
87 108 97 97 3 -2 22 -100 43 -218 l39 -215 -88 -195 c-203 -452 -227 -486
-375 -521 -70 -16 -124 -3 -265 65 -60 29 -151 65 -203 81 -58 17 -97 34 -100
44 -15 50 -217 1141 -231 1248 l-7 52 59 -27 c79 -36 129 -35 191 5 26 17 59
35 73 41 41 16 131 12 176 -8z m5034 -357 c78 -452 176 -1046 239 -1449 48
-303 141 -919 141 -930 0 -13 -25 0 -126 66 -101 65 -179 107 -295 157 l-46
19 -52 324 c-67 414 -280 1693 -325 1954 -19 109 -34 200 -33 201 1 1 38 -5
82 -13 91 -16 233 -12 305 10 25 8 46 13 47 12 1 0 30 -158 63 -351z m10970
-130 c43 -317 42 -312 20 -324 -10 -5 -37 -10 -60 -10 -37 0 -40 2 -36 23 3
12 7 76 10 142 8 153 28 387 33 381 2 -2 17 -98 33 -212z m-20461 142 c43 -23
107 -99 144 -173 132 -262 247 -960 207 -1248 -23 -161 -66 -233 -167 -278
-118 -53 -257 -74 -283 -42 -30 36 -220 1153 -260 1525 -17 164 0 191 140 214
113 19 185 19 219 2z m-5565 -503 c-11 -77 -45 -280 -58 -338 l-13 -60 -7 155
c-3 85 -9 171 -11 190 -5 32 -2 37 37 62 24 14 46 27 50 27 4 1 4 -16 2 -36z
m2414 -465 c12 -16 60 -222 146 -628 151 -716 277 -1209 505 -1978 56 -188 99
-347 95 -353 -15 -25 -283 -129 -333 -129 -45 0 -69 26 -91 98 -52 175 -196
1050 -274 1667 -50 391 -128 1170 -123 1225 8 92 43 137 75 98z m10991 -857
c23 -106 125 -676 246 -1366 183 -1046 262 -1480 302 -1659 l15 -69 77 7 c284
25 1245 180 1276 206 9 8 12 29 8 73 -10 125 -56 482 -113 882 -33 225 -56
412 -52 416 11 10 175 37 272 45 47 4 95 11 108 15 12 5 22 5 22 1 0 -4 18
-135 40 -292 39 -277 122 -897 136 -1013 8 -73 16 -75 176 -48 68 11 229 36
358 56 129 19 250 37 268 40 59 11 33 -10 -44 -34 -42 -13 -94 -38 -117 -55
-39 -30 -58 -54 -131 -171 -30 -48 -64 -70 -128 -80 -85 -13 -183 -116 -195
-204 -8 -56 -31 -71 -111 -71 -79 0 -174 -36 -404 -152 -231 -116 -251 -135
-303 -280 -19 -53 -62 -96 -136 -133 -83 -43 -261 -112 -319 -125 -61 -14
-158 -63 -284 -145 -99 -65 -217 -123 -266 -131 -61 -10 -131 -35 -245 -87
-150 -68 -236 -96 -330 -108 -84 -11 -156 -38 -227 -87 -63 -43 -114 -62 -196
-72 -41 -6 -91 -19 -112 -31 -48 -27 -97 -21 -146 16 -49 38 -62 70 -110 267
-50 206 -67 299 -95 516 -20 163 -51 296 -73 322 -23 26 -43 73 -50 117 -6 39
-4 43 16 48 13 3 79 17 148 31 179 36 358 82 407 104 49 22 50 -21 -8 340 -50
309 -112 657 -244 1365 -227 1220 -270 1465 -258 1475 26 24 614 117 755 119
l56 1 11 -49z m-2768 -453 c107 -124 165 -214 195 -305 9 -26 56 -134 105
-239 48 -106 104 -238 124 -294 40 -118 82 -180 159 -240 57 -43 122 -109 149
-151 9 -13 53 -202 97 -419 190 -926 291 -1358 324 -1397 l23 -27 248 49 c305
59 293 62 339 -82 9 -29 31 -76 49 -105 l32 -51 1 -181 c0 -200 -1 -195 82
-382 89 -201 118 -354 66 -354 -7 0 -84 69 -171 153 -222 215 -341 319 -516
451 -84 63 -178 141 -210 173 -55 57 -60 66 -140 274 -105 274 -145 345 -270
476 -119 125 -139 165 -179 357 -25 118 -30 170 -33 316 -6 311 -33 383 -215
574 -66 69 -126 139 -134 155 -12 21 -15 57 -13 137 2 126 0 133 -125 327 -38
59 -88 156 -112 215 -24 59 -60 143 -81 187 -99 214 -129 329 -96 369 20 24
101 64 164 80 62 16 71 12 138 -66z m4498 -132 c143 -86 240 -134 287 -142
l40 -6 38 -266 37 -267 -21 -17 c-41 -33 -177 -61 -335 -70 l-49 -2 -63 399
c-34 220 -64 410 -66 423 -6 30 -1 28 132 -52z m7006 -445 c10 -17 34 -223 50
-431 17 -219 39 -438 55 -534 l9 -59 -57 -62 c-83 -90 -132 -178 -132 -235 0
-67 26 -212 65 -366 46 -182 52 -256 30 -364 -19 -88 -23 -210 -15 -425 6
-133 11 -115 -84 -270 -34 -56 -49 -95 -77 -210 -8 -28 -26 -64 -45 -85 -46
-51 -97 -136 -143 -235 l-41 -87 -37 30 c-88 70 -133 138 -239 358 -88 185
-147 286 -246 417 -96 126 -145 220 -203 387 -60 172 -115 277 -221 419 -47
63 -95 135 -108 160 -25 49 -151 420 -145 426 2 1 105 13 229 24 242 24 520
57 526 64 10 10 24 132 44 366 32 395 51 593 59 631 l7 35 88 13 c212 30 619
51 631 33z m3459 -946 c13 -20 25 -25 56 -25 49 0 70 -25 101 -118 33 -101 73
-186 100 -211 21 -19 31 -21 72 -16 42 6 52 4 72 -15 19 -18 32 -22 60 -17 29
5 38 2 50 -16 23 -36 42 -137 69 -367 14 -118 32 -251 41 -295 21 -113 20
-133 -9 -141 -58 -14 -164 43 -211 114 -28 43 -85 180 -109 262 -9 30 -17 100
-19 155 -2 89 -6 108 -35 169 -38 81 -111 182 -177 246 -88 84 -105 115 -105
189 0 70 8 111 20 111 4 0 15 -11 24 -25z m-53 -1318 c269 -208 301 -222 393
-173 69 37 98 34 135 -11 60 -73 84 -172 67 -279 -8 -57 7 -84 46 -84 35 0 58
-29 58 -72 0 -47 30 -82 63 -72 39 11 42 10 45 -30 4 -52 -10 -134 -59 -336
-54 -225 -95 -309 -126 -256 -13 22 -48 36 -89 34 -33 -1 -43 4 -76 42 -57 64
-102 150 -143 275 -40 118 -64 173 -100 220 -33 44 -75 131 -75 155 0 76 -206
321 -310 369 -26 12 -80 56 -124 100 l-79 79 39 25 c71 46 189 116 195 117 4
0 67 -46 140 -103z"/>
<path d="M12519 28025 c-32 -14 -97 -29 -145 -35 -101 -13 -159 -39 -186 -85
-34 -60 17 -73 80 -20 25 21 40 25 96 25 77 0 117 17 189 80 73 65 63 75 -34
35z"/>
<path d="M19985 28001 c-27 -9 -56 -20 -62 -24 -18 -11 -17 -101 1 -116 20
-17 89 5 127 40 36 33 41 92 10 109 -11 5 -21 10 -23 9 -2 -1 -25 -8 -53 -18z"/>
<path d="M19256 27961 c-9 -15 51 -123 106 -190 29 -35 70 -73 91 -84 37 -19
38 -19 142 2 57 12 118 21 134 21 41 0 73 32 65 65 -5 21 3 33 45 75 45 43 51
52 41 70 -21 39 -135 17 -181 -36 -9 -11 -21 -32 -26 -49 -9 -28 -12 -30 -56
-27 -42 3 -48 1 -56 -21 -11 -28 -41 -42 -70 -32 -11 3 -33 30 -49 59 -51 90
-166 181 -186 147z"/>
<path d="M8694 27758 c-219 -131 -415 -268 -561 -389 -57 -48 -98 -94 -136
-151 -30 -46 -85 -116 -121 -157 -95 -107 -101 -149 -19 -137 107 14 314 98
543 220 50 27 85 38 151 46 110 13 299 77 299 101 0 17 -21 18 -106 8 -124
-15 -281 -68 -474 -159 -202 -96 -262 -120 -300 -120 -45 0 -37 24 23 71 57
45 109 105 137 159 38 73 170 185 420 355 260 176 320 225 276 225 -7 0 -67
-32 -132 -72z"/>
<path d="M11887 27775 c-79 -41 -115 -53 -219 -70 -21 -3 -51 -17 -68 -31 -29
-25 -34 -26 -119 -19 -95 7 -118 1 -187 -51 -36 -28 -50 -30 -58 -9 -7 19 -65
20 -112 0 -20 -8 -42 -28 -52 -46 -26 -50 -100 -127 -167 -174 -112 -80 -133
-61 -45 40 61 72 72 95 44 95 -9 0 -86 -23 -172 -52 -188 -62 -206 -75 -196
-146 6 -46 5 -50 -17 -55 -46 -13 -250 -7 -327 9 -42 9 -120 36 -173 60 -126
58 -161 62 -279 32 -76 -18 -122 -23 -230 -23 l-135 0 -79 39 c-44 21 -97 41
-118 44 -72 9 -296 -61 -285 -90 3 -9 17 -11 43 -8 21 3 71 5 109 5 63 0 80
-5 157 -43 49 -24 107 -45 134 -48 32 -4 117 5 240 25 105 17 207 31 226 31
21 0 61 -13 94 -31 98 -51 151 -61 365 -66 224 -6 358 6 488 43 109 32 178 69
275 148 55 45 84 62 99 59 13 -3 69 20 142 56 104 53 127 61 176 61 169 0 629
193 594 249 -13 22 -65 10 -148 -34z"/>
<path d="M14110 27811 c-91 -29 -168 -89 -205 -161 -22 -44 -78 -220 -98 -311
-14 -64 7 -123 45 -127 36 -4 62 11 203 114 119 88 219 144 232 131 3 -4 -5
-20 -20 -35 -51 -53 -55 -116 -8 -141 25 -14 115 -14 163 -1 41 12 78 51 78
84 0 11 -14 50 -30 84 -32 68 -38 101 -17 104 6 0 59 2 117 2 88 1 112 5 146
23 58 31 94 77 94 119 0 51 -16 73 -68 97 -66 29 -265 36 -372 12 -125 -28
-162 -30 -175 -12 -14 20 -53 28 -85 18z m410 -76 c43 -31 60 -31 90 0 23 24
24 24 49 8 86 -56 60 -109 -49 -101 -74 5 -130 43 -130 89 0 16 1 29 3 29 2 0
18 -11 37 -25z m-409 -41 c30 -29 60 -30 118 -4 24 11 49 20 55 20 12 0 46
-101 46 -135 0 -8 -8 -15 -17 -15 -27 0 -120 -57 -238 -145 -125 -94 -171
-120 -180 -104 -11 17 5 61 36 96 16 19 29 37 30 41 1 4 2 48 3 97 3 101 22
160 58 174 30 12 57 4 89 -25z m269 -298 c0 -20 -29 -41 -40 -30 -6 6 -4 18 6
32 16 23 34 21 34 -2z"/>
<path d="M15666 27780 c-40 -13 -66 -39 -66 -68 0 -29 62 -91 116 -117 32 -15
37 -15 71 2 55 26 123 95 123 125 0 46 -32 63 -129 65 -47 1 -99 -2 -115 -7z"/>
<path d="M7358 27521 c-61 -54 -105 -118 -90 -133 15 -15 152 123 152 152 0
29 -11 25 -62 -19z"/>
<path d="M7113 27312 c-150 -142 -230 -242 -194 -242 25 0 311 294 311 320 0
25 -32 3 -117 -78z"/>
<path d="M16938 27247 c-20 -12 -65 -41 -98 -64 -34 -24 -81 -48 -103 -54 -49
-13 -136 -73 -227 -157 -84 -77 -125 -135 -122 -173 2 -20 -15 -63 -48 -126
-39 -74 -50 -105 -50 -142 0 -100 -53 -254 -89 -264 -30 -7 -27 -44 8 -98 40
-62 77 -94 144 -124 32 -14 71 -39 86 -56 25 -27 37 -31 119 -41 156 -20 292
10 292 65 0 29 -34 61 -127 120 -39 25 -80 58 -89 73 -28 42 -29 135 -4 234
56 224 212 435 437 593 53 36 85 66 89 81 8 32 -20 89 -62 126 -43 38 -101 40
-156 7z m117 -68 c10 -15 -29 -54 -117 -115 -196 -139 -326 -330 -393 -578
-45 -166 -32 -229 76 -378 l49 -68 -68 0 c-89 0 -123 12 -161 60 -31 39 -65
54 -135 62 l-28 3 23 29 c16 20 24 47 28 96 5 49 14 78 33 108 30 45 54 114
63 184 4 30 16 59 32 78 21 25 25 38 20 70 -4 32 1 48 24 84 40 64 169 161
303 230 80 41 127 71 155 102 39 44 81 58 96 33z"/>
<path d="M6508 27173 c-38 -41 -42 -83 -7 -83 25 0 103 74 97 92 -3 7 -18 14
-34 16 -22 2 -36 -4 -56 -25z"/>
<path d="M6757 26989 c-123 -117 -146 -149 -109 -149 16 0 157 140 223 222 62
77 8 42 -114 -73z"/>
<path d="M6400 27058 c-46 -22 -276 -242 -299 -285 -11 -21 -8 -25 36 -53 27
-16 53 -31 58 -34 21 -8 -37 -48 -200 -136 -93 -51 -195 -110 -225 -131 -29
-21 -56 -37 -58 -35 -6 7 25 60 72 120 49 63 54 76 33 76 -41 0 -270 -218
-303 -288 -17 -34 -23 -40 -51 -39 -40 1 -70 -24 -95 -81 -25 -55 -18 -95 15
-90 15 2 31 21 52 59 18 34 35 54 43 51 7 -2 40 17 73 42 32 25 59 41 59 36 0
-17 -42 -78 -130 -190 -85 -108 -123 -172 -135 -227 -5 -26 -12 -33 -30 -33
-14 0 -36 -15 -58 -39 -63 -70 -60 -118 6 -86 67 31 229 178 491 442 280 283
373 366 468 414 72 37 181 139 176 165 -2 11 -23 26 -57 39 -30 11 -56 25 -58
31 -2 6 30 49 72 95 82 92 122 157 112 182 -8 22 -13 21 -67 -5z m-480 -636
c0 -16 -137 -179 -237 -282 -89 -92 -163 -154 -163 -135 0 11 33 70 70 125 45
67 77 128 101 195 10 27 18 42 18 31 1 -27 47 -15 129 34 68 41 82 46 82 32z
m-450 -515 c0 -2 -15 -16 -32 -33 l-33 -29 29 33 c28 30 36 37 36 29z"/>
<path d="M9670 26766 c-101 -29 -172 -78 -201 -141 -12 -24 -23 -32 -67 -41
-64 -14 -78 -25 -86 -66 -4 -21 -28 -52 -71 -93 -58 -56 -65 -67 -65 -101 0
-51 51 -195 84 -239 31 -40 67 -52 181 -61 89 -7 258 9 335 32 134 40 420 297
420 379 0 43 -34 60 -148 74 -61 8 -77 14 -100 39 -21 22 -40 31 -81 37 l-53
7 6 60 c4 33 9 65 12 73 3 7 -4 23 -15 34 -24 24 -79 27 -151 7z m45 -80 c20
-14 20 -13 -50 -132 -27 -44 -15 -64 37 -64 62 0 104 -15 131 -45 20 -24 32
-27 115 -34 51 -5 98 -13 104 -19 17 -17 -4 -50 -78 -127 -101 -107 -190 -134
-430 -135 -109 0 -124 2 -155 23 -38 25 -69 79 -76 136 -5 37 -3 41 36 67 27
17 50 44 64 73 17 35 33 51 64 66 53 26 108 78 124 119 32 80 70 104 114 72z"/>
<path d="M26115 25707 c-3 -7 -1 -26 5 -41 14 -39 14 -38 -30 -31 -45 8 -51
-4 -24 -45 27 -41 218 -230 231 -230 21 0 15 20 -23 72 -30 40 -38 61 -44 118
-9 78 -33 126 -79 153 -26 15 -32 16 -36 4z"/>
<path d="M26420 25234 c0 -30 146 -214 171 -214 17 0 19 7 19 65 0 35 -5 75
-12 89 -17 40 -68 47 -68 10 0 -22 -13 -17 -50 21 -30 31 -60 46 -60 29z"/>
<path d="M26680 24971 c0 -24 126 -181 167 -208 38 -25 53 -3 29 42 -39 71
-196 205 -196 166z"/>
<path d="M26961 24618 c16 -31 183 -198 198 -198 19 0 13 20 -20 65 -22 31
-30 51 -27 69 5 23 2 26 -21 26 -15 0 -48 14 -74 30 -57 36 -72 38 -56 8z"/>
<path d="M8310 23988 c-80 -16 -243 -69 -292 -94 -31 -16 -57 -39 -74 -67 -15
-23 -100 -116 -189 -207 -187 -191 -205 -213 -205 -251 0 -38 42 -84 95 -105
36 -13 68 -16 159 -12 107 4 119 7 188 41 82 40 210 146 363 301 111 111 152
173 161 238 7 52 -10 122 -37 149 -21 21 -88 24 -169 7z m98 -110 c38 -38 -5
-112 -160 -273 -180 -187 -249 -228 -412 -241 -143 -13 -191 44 -96 113 95 70
123 97 184 179 89 119 139 154 296 205 90 30 168 37 188 17z"/>
<path d="M27553 23834 c-13 -34 38 -142 79 -168 51 -32 34 78 -22 147 -34 40
-47 45 -57 21z"/>
<path d="M27750 23482 c0 -22 142 -411 173 -472 28 -57 47 -63 47 -16 0 79
-145 462 -187 494 -23 17 -33 15 -33 -6z"/>
<path d="M27856 23492 c-6 -11 11 -77 30 -114 9 -17 23 -28 36 -28 18 0 20 4
15 36 -6 38 -51 114 -67 114 -5 0 -11 -4 -14 -8z"/>
<path d="M28002 23128 c-18 -18 -15 -57 13 -138 29 -85 30 -94 11 -87 -8 3
-20 0 -26 -8 -31 -37 64 -223 102 -199 4 3 8 -10 8 -28 0 -92 122 -408 191
-497 31 -39 98 -81 131 -81 26 0 28 -2 28 -42 1 -55 46 -143 75 -143 17 0 20
6 17 35 -3 47 -28 120 -68 205 -48 101 -72 127 -124 134 -51 7 -73 32 -100
112 -20 59 -19 70 7 47 27 -23 50 -28 63 -14 14 18 -25 140 -119 378 -94 237
-114 279 -146 311 -30 30 -45 33 -63 15z"/>
<path d="M29104 19745 c-13 -32 4 -201 30 -318 33 -144 103 -363 145 -449 34
-72 95 -148 118 -148 13 0 15 9 10 53 -15 124 -202 749 -249 831 -26 45 -45
55 -54 31z m134 -427 c32 -99 50 -195 33 -167 -21 33 -78 259 -66 259 2 0 17
-42 33 -92z"/>
<path d="M29673 18233 c-28 -63 -23 -224 11 -358 34 -132 51 -159 42 -65 -18
185 -19 253 -5 248 18 -6 46 -82 66 -178 16 -80 28 -110 43 -110 34 0 13 138
-49 322 -42 125 -66 178 -82 178 -5 0 -17 -17 -26 -37z"/>
<path d="M29734 17715 c-4 -16 0 -85 9 -154 27 -218 63 -275 61 -96 -2 110
-26 241 -48 264 -13 12 -16 11 -22 -14z"/>
<path d="M29863 17435 c4 -85 3 -155 -2 -155 -5 0 -14 7 -21 15 -22 27 -40 18
-40 -20 0 -33 21 -96 74 -221 15 -35 32 -106 40 -164 13 -90 21 -117 70 -214
94 -186 147 -443 166 -807 11 -206 16 -249 31 -249 5 0 11 12 15 28 14 66 14
65 29 45 11 -15 16 -16 27 -5 9 9 14 58 16 175 4 176 -12 310 -48 396 -26 64
-37 113 -46 205 -4 52 -3 77 3 73 6 -4 13 -25 17 -47 14 -87 28 -140 38 -140
10 0 9 14 -18 280 -29 285 -91 617 -120 641 -9 7 -27 36 -41 63 -34 68 -50 84
-89 92 -34 6 -55 36 -69 99 -13 56 -16 65 -27 65 -8 0 -9 -46 -5 -155z m113
-225 c-11 -52 -35 -107 -36 -85 0 26 39 149 46 142 2 -1 -3 -27 -10 -57z m108
-175 c20 -21 30 -76 22 -128 -7 -45 -43 -127 -55 -127 -11 0 -42 116 -48 181
-5 51 -3 58 18 73 29 20 43 20 63 1z m133 -942 c-3 -10 -5 -2 -5 17 0 19 2 27
5 18 2 -10 2 -26 0 -35z"/>
<path d="M29995 16240 c-22 -35 -34 -865 -12 -886 19 -19 31 35 48 206 13 142
15 598 2 649 -9 36 -26 50 -38 31z"/>
<path d="M29998 14959 c-26 -15 -38 -73 -38 -181 0 -124 20 -141 49 -41 28 99
46 40 46 -152 0 -71 -2 -177 -5 -235 -6 -122 9 -149 27 -50 37 204 58 526 38
589 -8 27 -30 27 -49 -1 -16 -22 -16 -22 -16 14 0 20 -7 44 -16 52 -8 9 -16
16 -17 16 -1 0 -10 -5 -19 -11z"/>
<path d="M29942 14547 c-33 -42 -115 -548 -91 -572 7 -7 13 -5 19 5 22 36 81
341 95 496 7 71 -2 97 -23 71z"/>
<path d="M30191 14313 c-6 -21 -22 -95 -36 -165 -29 -143 -50 -211 -58 -188
-3 8 -7 50 -10 93 -4 83 -16 109 -40 88 -55 -45 -3 -380 60 -389 13 -2 25 4
31 15 23 43 72 326 88 506 6 67 5 77 -9 77 -10 0 -20 -14 -26 -37z"/>
<path d="M29817 13853 c-4 -3 -7 -39 -7 -80 0 -56 3 -73 14 -73 18 0 26 22 26
73 0 69 -13 100 -33 80z"/>
<path d="M30040 13745 c-10 -12 -10 -25 -1 -61 23 -90 59 -132 101 -119 47 15
31 104 -30 159 -45 40 -52 42 -70 21z"/>
<path d="M29794 13622 c-31 -20 -94 -205 -148 -432 -24 -101 -48 -178 -70
-220 -77 -147 -87 -170 -106 -244 -45 -178 -60 -388 -41 -579 6 -51 12 -149
15 -219 4 -132 8 -148 31 -148 31 0 122 110 175 210 36 69 65 110 92 131 57
46 98 141 133 308 25 122 4 107 -72 -51 -84 -173 -132 -250 -190 -305 -37 -35
-45 -48 -50 -92 -4 -40 -9 -49 -19 -41 -25 21 -37 153 -38 400 -1 280 5 313
78 465 52 107 78 185 107 320 11 55 38 154 60 220 66 206 81 302 43 277z"/>
<path d="M30005 13515 c-7 -51 0 -163 10 -173 22 -22 41 102 28 177 -12 65
-30 63 -38 -4z"/>
<path d="M29962 13158 c3 -58 26 -73 41 -28 11 31 -6 80 -28 80 -13 0 -15 -10
-13 -52z"/>
<path d="M29931 13002 c-13 -25 -14 -92 -1 -112 16 -26 35 6 35 60 0 57 -17
83 -34 52z"/>
<path d="M30000 12925 c0 -42 4 -55 15 -55 25 0 38 37 25 75 -18 56 -40 45
-40 -20z"/>
<path d="M29886 12724 c-3 -9 -6 -31 -6 -49 0 -69 34 -92 46 -31 12 65 -21
130 -40 80z"/>
<path d="M24947 11418 c-11 -8 -20 -38 -27 -83 -21 -151 -6 -605 26 -774 14
-75 60 -163 90 -175 58 -22 112 10 242 141 114 114 136 164 136 298 0 122 -18
199 -79 320 -71 145 -157 240 -242 271 -48 17 -124 18 -146 2z m143 -168 c27
-14 107 -125 145 -200 65 -129 80 -227 49 -329 -12 -40 -30 -68 -73 -113 -54
-55 -61 -59 -97 -56 -48 4 -58 21 -85 156 -38 193 -35 443 6 523 17 31 26 35
55 19z"/>
<path d="M29585 11340 c-21 -22 -47 -40 -56 -40 -22 0 -99 -87 -134 -151 -41
-75 -18 -90 54 -37 36 26 42 28 38 12 -8 -24 -26 -107 -27 -116 0 -20 30 -4
54 27 36 47 62 109 70 167 5 33 18 60 42 89 67 80 31 123 -41 49z"/>
<path d="M16953 4698 c-17 -18 -52 -73 -79 -122 -27 -48 -61 -97 -75 -107 -15
-10 -55 -25 -89 -33 -69 -16 -110 -47 -110 -83 0 -52 -100 -133 -270 -219
-125 -62 -199 -89 -372 -134 -177 -47 -247 -81 -314 -152 -103 -108 -111 -164
-50 -348 26 -80 36 -125 32 -148 -10 -64 -130 -194 -194 -211 -57 -15 -80
-128 -47 -239 9 -28 43 -107 75 -175 60 -124 61 -124 119 -156 32 -17 116 -47
186 -67 106 -30 139 -35 185 -31 73 8 321 88 434 140 l88 41 113 170 c150 227
369 594 467 784 87 166 126 223 242 352 85 95 101 130 92 205 -11 92 -63 279
-96 344 -57 113 -186 221 -265 221 -33 0 -47 -6 -72 -32z m144 -140 c12 -13
32 -46 47 -75 24 -48 86 -240 105 -323 l8 -37 -26 13 c-34 18 -46 17 -87 -2
-46 -22 -69 -65 -83 -153 -24 -152 -179 -462 -456 -917 -177 -289 -243 -376
-309 -411 -38 -20 -335 -73 -406 -73 -90 0 -194 35 -231 76 -29 33 -138 260
-150 311 -16 67 1 103 56 121 50 16 92 56 157 150 67 98 73 141 30 209 -46 72
-62 117 -62 175 0 64 25 121 71 166 49 48 93 68 216 97 130 31 290 94 478 188
162 81 232 126 295 192 25 26 77 69 116 95 76 52 107 87 148 168 29 58 50 65
83 30z"/>
</g>
</svg>
