<?xml version="1.0" standalone="no"?>
<!DOCTYPE svg PUBLIC "-//W3C//DTD SVG 20010904//EN"
 "http://www.w3.org/TR/2001/REC-SVG-20010904/DTD/svg10.dtd">
<svg version="1.0" xmlns="http://www.w3.org/2000/svg"
 width="640.000000pt" height="640.000000pt" viewBox="0 0 640.000000 640.000000"
 preserveAspectRatio="xMidYMid meet">
<metadata>
Created by potrace 1.11, written by Peter Selinger 2001-2013
</metadata>
<g transform="translate(0.000000,640.000000) scale(0.100000,-0.100000)"
fill="#000000" stroke="none">
<path d="M2841 6379 c-413 -52 -754 -154 -1091 -327 -833 -426 -1427 -1174
-1655 -2082 -18 -74 -37 -157 -41 -185 -5 -27 -9 -52 -9 -55 -1 -3 -5 -27 -9
-55 -4 -27 -9 -61 -12 -74 -19 -127 -26 -562 -11 -701 18 -153 32 -248 58
-370 268 -1257 1280 -2243 2541 -2475 76 -13 164 -27 195 -30 32 -4 69 -9 83
-11 45 -10 504 -12 580 -3 41 5 95 11 120 13 90 8 300 49 430 83 440 115 866
335 1224 631 101 84 302 282 386 381 407 476 677 1086 745 1686 3 28 10 82 14
120 9 67 6 528 -3 590 -3 17 -7 50 -10 75 -16 144 -53 325 -102 498 -194 682
-633 1300 -1220 1720 -372 265 -817 455 -1260 536 -75 14 -95 17 -204 32 -25
3 -58 7 -75 10 -16 2 -142 6 -280 8 -199 3 -279 0 -394 -15z m1149 -942 c19
-4 57 -9 83 -12 90 -11 250 -46 346 -77 368 -117 659 -294 927 -562 295 -296
492 -641 593 -1041 17 -70 25 -107 45 -227 28 -168 26 -483 -5 -663 -28 -162
-46 -235 -89 -366 -271 -809 -983 -1401 -1825 -1516 -169 -23 -505 -22 -631 1
-10 2 -39 7 -64 11 -71 11 -237 54 -331 85 -332 112 -630 300 -883 555 -362
366 -576 826 -636 1365 -9 74 -6 421 4 470 2 14 12 72 22 130 119 736 647
1396 1349 1685 150 62 350 121 480 141 28 4 57 9 65 10 8 2 51 6 95 10 44 3
81 8 83 9 6 5 338 -2 372 -8z"/>
<path d="M3618 5265 c-2 -1 -37 -5 -78 -8 -41 -4 -84 -8 -95 -11 -11 -2 -40
-7 -65 -11 -25 -4 -96 -20 -159 -36 -786 -203 -1376 -845 -1517 -1649 -19
-111 -26 -192 -28 -332 -8 -544 209 -1080 597 -1471 340 -343 799 -561 1277
-606 118 -11 347 -7 460 9 369 50 692 185 995 413 180 136 394 379 515 583
126 213 228 491 260 710 6 43 14 90 16 104 13 62 12 372 -1 475 -42 341 -149
633 -333 909 -36 54 -71 103 -76 110 -6 6 -37 43 -69 82 -114 141 -307 309
-477 414 -259 161 -514 253 -831 301 -65 9 -383 21 -391 14z m22 -637 c125
-24 287 -76 384 -125 445 -223 746 -654 801 -1148 8 -69 8 -261 0 -320 -71
-537 -399 -972 -892 -1179 -65 -27 -217 -73 -268 -82 -16 -2 -55 -8 -85 -13
-83 -14 -334 -11 -429 5 -340 55 -664 238 -874 492 -111 135 -178 242 -227
362 -12 30 -28 69 -35 85 -20 44 -55 185 -70 279 -21 128 -16 350 10 486 77
390 293 717 620 937 170 115 400 204 590 229 28 3 52 8 54 10 2 1 74 3 160 3
113 -1 185 -6 261 -21z"/>
<path d="M3255 4504 c-114 -15 -171 -28 -265 -61 -357 -124 -649 -403 -790
-756 -34 -85 -66 -202 -76 -276 -3 -25 -8 -49 -11 -53 -5 -10 -6 -296 0 -306
3 -4 7 -29 11 -57 8 -72 43 -198 77 -285 166 -416 547 -726 991 -806 125 -22
344 -22 462 0 525 101 914 466 1048 984 27 105 30 134 32 282 1 161 -2 198
-23 308 -70 357 -337 708 -672 885 -110 58 -265 112 -374 132 -16 2 -41 7 -55
10 -53 11 -269 11 -355 -1z m530 -388 c194 -26 385 -124 527 -270 139 -142
227 -317 257 -511 9 -58 7 -245 -3 -293 -54 -253 -174 -445 -367 -587 -507
-374 -1230 -138 -1427 465 -33 100 -37 133 -36 290 1 169 19 253 85 389 174
365 559 571 964 517z"/>
<path d="M3570 3982 c-240 -35 -423 -144 -555 -327 -97 -137 -136 -253 -141
-425 -4 -138 9 -219 50 -320 196 -483 797 -649 1207 -334 210 161 321 402 306
664 -7 120 -26 197 -69 290 -101 215 -289 372 -517 430 -77 19 -222 31 -281
22z m84 -247 c134 -35 263 -131 334 -247 222 -368 -41 -838 -468 -838 -425 0
-691 456 -480 825 96 169 270 270 467 274 53 1 112 -5 147 -14z"/>
<path d="M3385 3645 c-125 -35 -234 -124 -290 -239 -43 -87 -53 -133 -50 -223
6 -183 124 -348 299 -415 59 -23 198 -32 263 -18 308 70 454 433 282 701 -104
163 -317 245 -504 194z m318 -145 c33 -12 74 -39 102 -65 135 -130 135 -340 0
-470 -136 -129 -368 -111 -475 37 -52 71 -63 105 -64 198 0 101 23 160 90 227
95 95 219 121 347 73z"/>
</g>
</svg>
