<svg xmlns="http://www.w3.org/2000/svg" viewBox="0 0 506.92 89.62"><defs><style>.cls-1{fill:#dc0d15;}.cls-2{fill:#6c6b6a;}.cls-3{fill:#30312f;}</style></defs><title>Element 1</title><g id="Ebene_2" data-name="Ebene 2"><g id="Ebene_1-2" data-name="Ebene 1"><rect class="cls-1" width="5.38" height="89.62"/><rect class="cls-1" x="10.76" width="5.38" height="89.62"/><rect class="cls-1" x="21.54" width="10.73" height="89.62"/><rect class="cls-1" x="37.64" width="17.95" height="89.62"/><rect class="cls-1" x="60.92" width="28.71" height="89.62"/><path class="cls-2" d="M131.59,57.26,115.42,30.59h-.1V57.26h-7.49V18.16h8.37l15.86,26.26h.1V18.16h7.49v39.1Z"/><path class="cls-2" d="M163.52,57.26V53.78h-.1A10.85,10.85,0,0,1,154.26,58a11,11,0,0,1-6.53-2,7,7,0,0,1-2.83-6.16,10.65,10.65,0,0,1,.16-1.9,6.33,6.33,0,0,1,.86-2,6.48,6.48,0,0,1,1.85-2,12.09,12.09,0,0,1,3.35-1.48,21.68,21.68,0,0,1,5.17-.83l6.92-.42V39.95a4.43,4.43,0,0,0-1.38-3.54,5.73,5.73,0,0,0-3.87-1.2,5.61,5.61,0,0,0-3.61,1.07,3.81,3.81,0,0,0-1.43,2.89h-7.18A9.74,9.74,0,0,1,149,32.62q3-2.81,9.31-2.81A16.15,16.15,0,0,1,167,31.94a7.16,7.16,0,0,1,3.38,6.5v15.5a16,16,0,0,0,.36,3.33Zm-.31-9.2V45.62l-6.24.57a7.08,7.08,0,0,0-3.54,1,2.68,2.68,0,0,0-1,2.29q0,3.12,4.68,3.12a8.09,8.09,0,0,0,4.13-1.17A3.69,3.69,0,0,0,163.2,48.06Z"/><path class="cls-2" d="M199.92,40.47l-7.8.31q-.21-4.63-4.32-4.63-5.2,0-5.2,8.32a10.75,10.75,0,0,0,1.22,5.28A4.15,4.15,0,0,0,187.75,52q4.06,0,4.73-4.37l7.33.26A13.53,13.53,0,0,1,196,55.26Q193.1,58,188,58q-6.4,0-9.78-3.74T174.8,44.16q0-6.5,3.48-10.43a12.07,12.07,0,0,1,9.52-3.93q5.67,0,8.74,3A11.45,11.45,0,0,1,199.92,40.47Z"/><path class="cls-2" d="M220.61,57.26V41a5.07,5.07,0,0,0-1.35-3.9,4.72,4.72,0,0,0-3.33-1.25,4.25,4.25,0,0,0-3.56,1.74,7.23,7.23,0,0,0-1.33,4.5V57.26h-7.49V18.16H211V34h.1a8.54,8.54,0,0,1,7.59-4.21q4.63,0,7,2.6a9.58,9.58,0,0,1,2.37,6.71V57.26Z"/><path class="cls-1" d="M234.44,57.26V18.16h14.72q8.94,0,13.88,5.07T268,37.71q0,9-5.38,14.27a18.17,18.17,0,0,1-13.23,5.28Zm7.8-6.66h6.6a10.88,10.88,0,0,0,5.07-1.14,8.88,8.88,0,0,0,3.46-3.07,15.06,15.06,0,0,0,1.87-4.13,16.85,16.85,0,0,0,.62-4.6,18.11,18.11,0,0,0-.6-4.78,13.16,13.16,0,0,0-1.9-4.06,8.7,8.7,0,0,0-3.64-2.94,13.21,13.21,0,0,0-5.51-1.07h-6Z"/><path class="cls-1" d="M298.56,46H279a7.71,7.71,0,0,0,1.85,4.42,6.15,6.15,0,0,0,9.75-1.35l7.28.57a11.2,11.2,0,0,1-4.78,6.19A15.27,15.27,0,0,1,284.88,58,13.26,13.26,0,0,1,275,54.14,13.88,13.88,0,0,1,271.21,44q0-6.4,3.8-10.27a14.54,14.54,0,0,1,19.76,0A14,14,0,0,1,298.56,44ZM279,41.25h12.06a6.85,6.85,0,0,0-1.77-4,5.16,5.16,0,0,0-4.06-1.77,5.73,5.73,0,0,0-4.32,1.61A7.23,7.23,0,0,0,279,41.25Z"/><path class="cls-1" d="M319.83,57.26V41a5.07,5.07,0,0,0-1.35-3.9,4.72,4.72,0,0,0-3.33-1.25,4.25,4.25,0,0,0-3.56,1.74,7.23,7.23,0,0,0-1.33,4.5V57.26h-7.49V30.53h7.18V34h.1a9.13,9.13,0,0,1,7.9-4.21q4.63,0,7,2.6a9.59,9.59,0,0,1,2.37,6.71V57.26Z"/><path class="cls-1" d="M348.43,57.26l-7.9-13.1h-.1v13.1h-7.49V18.16h7.49V42.24h.1l8.06-11.7h8.68L348.32,42.6l9.31,14.66Z"/><path class="cls-2" d="M387.74,28.3l-7.8.16a3.72,3.72,0,0,0-1.66-3.17,6.77,6.77,0,0,0-4.06-1.2,7.84,7.84,0,0,0-4.58,1.17A3.66,3.66,0,0,0,368,28.4q0,3.17,4.52,4.63l7.18,2.29q8.89,2.86,8.89,10.71a10.82,10.82,0,0,1-.75,3.93,14.07,14.07,0,0,1-2.29,3.82,10.81,10.81,0,0,1-4.45,3A18.06,18.06,0,0,1,374.32,58a21.34,21.34,0,0,1-6.73-1,12.16,12.16,0,0,1-4.37-2.31,10.66,10.66,0,0,1-2.39-3.2,11.55,11.55,0,0,1-1.12-3.15,16.75,16.75,0,0,1-.21-2.65l7.8-.16a5,5,0,0,0,2,4.37,8.59,8.59,0,0,0,5.1,1.4,8.89,8.89,0,0,0,4.37-1.12,3.68,3.68,0,0,0,1.07-5.77,11.12,11.12,0,0,0-3.77-2l-8.53-3.07a11.47,11.47,0,0,1-5.3-3.85,9.52,9.52,0,0,1-2-5.93,11.72,11.72,0,0,1,.73-4,13.94,13.94,0,0,1,2.24-3.9,10.59,10.59,0,0,1,4.26-3.07,16.13,16.13,0,0,1,6.34-1.17,19.23,19.23,0,0,1,6.08.88,12.26,12.26,0,0,1,4.08,2.11,10.5,10.5,0,0,1,2.34,2.83,11.28,11.28,0,0,1,1.2,2.81A9.66,9.66,0,0,1,387.74,28.3Z"/><path class="cls-2" d="M419.35,46H399.8a7.71,7.71,0,0,0,1.85,4.42,6.15,6.15,0,0,0,9.75-1.35l7.28.57a11.2,11.2,0,0,1-4.78,6.19A15.27,15.27,0,0,1,405.68,58a13.26,13.26,0,0,1-9.88-3.85A13.88,13.88,0,0,1,392,44q0-6.4,3.8-10.27a14.54,14.54,0,0,1,19.76,0A14,14,0,0,1,419.35,44ZM399.8,41.25h12.06a6.85,6.85,0,0,0-1.77-4A5.16,5.16,0,0,0,406,35.53a5.73,5.73,0,0,0-4.32,1.61A7.23,7.23,0,0,0,399.8,41.25Z"/><path class="cls-2" d="M422.84,22.27a4.35,4.35,0,0,1,1.27-3.07,4.09,4.09,0,0,1,3.09-1.35,4.26,4.26,0,0,1,3,1.27,4.07,4.07,0,0,1,1.33,3,4.31,4.31,0,0,1-1.3,3.07,4.19,4.19,0,0,1-6.16,0A4.24,4.24,0,0,1,422.84,22.27Zm.62,35V30.53h7.49V57.26Z"/><path class="cls-2" d="M433.81,36.25V30.53h3.43v-7.7h7.49v7.7h4v5.72h-4V49.78a1.63,1.63,0,0,0,.52,1.35,3.21,3.21,0,0,0,1.92.42,7.14,7.14,0,0,0,1.51-.16v5.88a30.46,30.46,0,0,1-3.59.31q-4,0-5.93-1.46t-1.92-5.51V36.25Z"/><path class="cls-2" d="M478.16,46H458.61a7.71,7.71,0,0,0,1.85,4.42,6.15,6.15,0,0,0,9.75-1.35l7.28.57a11.2,11.2,0,0,1-4.78,6.19A15.27,15.27,0,0,1,464.49,58a13.26,13.26,0,0,1-9.88-3.85A13.88,13.88,0,0,1,450.81,44q0-6.4,3.8-10.27a14.54,14.54,0,0,1,19.76,0A14,14,0,0,1,478.16,44Zm-19.55-4.78h12.06a6.85,6.85,0,0,0-1.77-4,5.16,5.16,0,0,0-4.06-1.77,5.73,5.73,0,0,0-4.32,1.61A7.23,7.23,0,0,0,458.61,41.25Z"/><path class="cls-2" d="M499.43,57.26V41a5.07,5.07,0,0,0-1.35-3.9,4.73,4.73,0,0,0-3.33-1.25,4.25,4.25,0,0,0-3.56,1.74,7.22,7.22,0,0,0-1.33,4.5V57.26h-7.49V30.53h7.18V34h.1a9.13,9.13,0,0,1,7.9-4.21q4.63,0,7,2.6a9.58,9.58,0,0,1,2.37,6.71V57.26Z"/><path class="cls-3" d="M107.83,70.19h5.82a12.62,12.62,0,0,1,3.86.55,8.38,8.38,0,0,1,2.8,1.45,7.61,7.61,0,0,1,1.79,2.14,9.26,9.26,0,0,1,1,2.5,12,12,0,0,1,.29,2.66,10.85,10.85,0,0,1-.56,3.48,10,10,0,0,1-1.64,3,7.62,7.62,0,0,1-2.81,2.17,9.12,9.12,0,0,1-3.91.81h-6.62Zm2.1,1.9v15h4.13A6.84,6.84,0,0,0,118,86a6.55,6.55,0,0,0,2.39-2.81,9.12,9.12,0,0,0,.74-3.69,8.89,8.89,0,0,0-.41-2.75,7.19,7.19,0,0,0-1.27-2.34,5.77,5.77,0,0,0-2.37-1.67,9.39,9.39,0,0,0-3.54-.61Z"/><path class="cls-3" d="M126.68,72.72a1.51,1.51,0,1,1,1,.42A1.43,1.43,0,0,1,126.68,72.72ZM126.76,89V76.49h2V89Z"/><path class="cls-3" d="M141.33,85.17l2,.3a5.93,5.93,0,0,1-5.75,3.88,5.54,5.54,0,0,1-4.24-1.75,6.15,6.15,0,0,1-1.64-4.37,7.74,7.74,0,0,1,1.63-5.12,5.37,5.37,0,0,1,4.35-2A5.76,5.76,0,0,1,142,77.83a6.66,6.66,0,0,1,1.63,4.81v.55h-9.85a4.49,4.49,0,0,0,1.11,3.24,3.92,3.92,0,0,0,6.41-1.26Zm-7.48-3.57h7.7a4.4,4.4,0,0,0-1.19-2.73,3.59,3.59,0,0,0-2.64-1A3.48,3.48,0,0,0,135,79,4.38,4.38,0,0,0,133.86,81.59Z"/><path class="cls-3" d="M160.83,89l-5.65-6.58V89h-2V70.19h2V82l5.6-5.53h2.68l-6.05,5.7,6.15,6.8Z"/><path class="cls-3" d="M165.73,89V76.49h1.9v2.75h.05q1.13-2.95,3.6-3h.7v2.05h-.62q-3.68,0-3.67,4.7v6Z"/><path class="cls-3" d="M173.93,72.72a1.51,1.51,0,1,1,1,.42A1.43,1.43,0,0,1,173.93,72.72ZM174,89V76.49h2V89Z"/><path class="cls-3" d="M178.53,78.09v-1.6h2.33V72.84h1.95v3.65h2.53v1.6h-2.53v7.67a2.17,2.17,0,0,0,.28,1.24,1.05,1.05,0,0,0,.92.39,9.8,9.8,0,0,0,1.3-.08v1.75q-1,.07-2,.08a2.38,2.38,0,0,1-1.9-.67,3.93,3.93,0,0,1-.57-2.48v-7.9Z"/><path class="cls-3" d="M187.83,72.72a1.51,1.51,0,1,1,1,.42A1.43,1.43,0,0,1,187.83,72.72ZM187.91,89V76.49h2V89Z"/><path class="cls-3" d="M202.93,80.22H201a2.4,2.4,0,0,0-.81-1.66,3.31,3.31,0,0,0-2.26-.66,4,4,0,0,0-2.17.52,1.62,1.62,0,0,0-.83,1.43,1.54,1.54,0,0,0,.75,1.36,6.81,6.81,0,0,0,2.52.76,10.52,10.52,0,0,1,3.81,1.2,2.62,2.62,0,0,1,1.21,2.38,3.43,3.43,0,0,1-1.3,2.68,6,6,0,0,1-4,1.13q-4.85,0-5.3-4h1.95a2.31,2.31,0,0,0,.84,1.61,3.72,3.72,0,0,0,2.46.66,5.2,5.2,0,0,0,2.47-.51,1.53,1.53,0,0,0,.93-1.44,1.32,1.32,0,0,0-.76-1.17,11.26,11.26,0,0,0-3-.78,8.68,8.68,0,0,1-3.34-1.17A2.78,2.78,0,0,1,193,80a3.36,3.36,0,0,1,1.41-2.85,6.07,6.07,0,0,1,3.71-1,5.3,5.3,0,0,1,3.49,1.13A3.64,3.64,0,0,1,202.93,80.22Z"/><path class="cls-3" d="M217.23,80.47l-2,.2a8.65,8.65,0,0,0-.35-.86,5.15,5.15,0,0,0-.56-.86,2.55,2.55,0,0,0-1-.78,3.68,3.68,0,0,0-1.46-.27,4.07,4.07,0,0,0-3.14,1.35,5.08,5.08,0,0,0-1.24,3.58,5.35,5.35,0,0,0,1.08,3.4,3.81,3.81,0,0,0,3.2,1.38q2.63,0,3.5-2.9l2.07.25a6.94,6.94,0,0,1-1.92,3.15,5.2,5.2,0,0,1-3.68,1.25,5.91,5.91,0,0,1-4.66-1.9,6.75,6.75,0,0,1-1.69-4.65A6.42,6.42,0,0,1,207.23,78a6.25,6.25,0,0,1,4.5-1.81,6.05,6.05,0,0,1,3.65,1.09A4.74,4.74,0,0,1,217.23,80.47Z"/><path class="cls-3" d="M228.13,89V81.44a3.64,3.64,0,0,0-.78-2.6,2.63,2.63,0,0,0-2-.8,3.31,3.31,0,0,0-2.48,1.06,4.05,4.05,0,0,0-1,2.94v7h-2V70.19h2v8.42h0a4.16,4.16,0,0,1,4-2.33,4.67,4.67,0,0,1,1.3.19,5.22,5.22,0,0,1,1.34.63,3.1,3.1,0,0,1,1.11,1.34,5,5,0,0,1,.42,2.15V89Z"/><path class="cls-3" d="M242.78,85.17l2,.3A5.93,5.93,0,0,1,239,89.34a5.54,5.54,0,0,1-4.24-1.75,6.15,6.15,0,0,1-1.64-4.37,7.74,7.74,0,0,1,1.63-5.12,5.37,5.37,0,0,1,4.35-2,5.76,5.76,0,0,1,4.35,1.69,6.66,6.66,0,0,1,1.63,4.81v.55h-9.85a4.49,4.49,0,0,0,1.11,3.24,3.92,3.92,0,0,0,6.41-1.26Zm-7.48-3.57H243a4.4,4.4,0,0,0-1.19-2.73,3.59,3.59,0,0,0-2.64-1A3.48,3.48,0,0,0,236.42,79,4.38,4.38,0,0,0,235.31,81.59Z"/><path class="cls-3" d="M269.16,89l-4.52-15.7h-.05L260.06,89h-1.9l-5-18.8h2.23l3.7,15.55h.05l4.48-15.55h1.95l4.48,15.67h0l3.7-15.67H276l-5,18.8Z"/><path class="cls-3" d="M286.31,85.17l2,.3a5.93,5.93,0,0,1-5.75,3.88,5.54,5.54,0,0,1-4.24-1.75,6.15,6.15,0,0,1-1.64-4.37,7.74,7.74,0,0,1,1.63-5.12,5.37,5.37,0,0,1,4.35-2A5.76,5.76,0,0,1,287,77.83a6.66,6.66,0,0,1,1.63,4.81v.55h-9.85a4.49,4.49,0,0,0,1.11,3.24,3.92,3.92,0,0,0,6.41-1.26Zm-7.48-3.57h7.7a4.4,4.4,0,0,0-1.19-2.73,3.59,3.59,0,0,0-2.64-1A3.48,3.48,0,0,0,279.95,79,4.39,4.39,0,0,0,278.83,81.59Z"/><path class="cls-3" d="M291.26,89V70.19h2v8.47h0a5,5,0,0,1,4.42-2.37,5.63,5.63,0,0,1,2,.38,6.26,6.26,0,0,1,1.85,1.11,5.17,5.17,0,0,1,1.39,2,7.72,7.72,0,0,1,.53,2.94,6.72,6.72,0,0,1-1.71,4.75,5.63,5.63,0,0,1-4.31,1.85,5.32,5.32,0,0,1-1.64-.24,3.33,3.33,0,0,1-1.23-.67,6.45,6.45,0,0,1-.76-.79,7.11,7.11,0,0,1-.55-.83h0V89Zm10.1-6.2a4.94,4.94,0,0,0-1.15-3.55,3.85,3.85,0,0,0-2.9-1.2,3.89,3.89,0,0,0-2.9,1.24,4.91,4.91,0,0,0-1.2,3.56,5.14,5.14,0,0,0,1.13,3.39,3.75,3.75,0,0,0,3,1.36,3.47,3.47,0,0,0,2.94-1.37A5.53,5.53,0,0,0,301.36,82.79Z"/><path class="cls-3" d="M315.93,80.22H314a2.4,2.4,0,0,0-.81-1.66,3.31,3.31,0,0,0-2.26-.66,4,4,0,0,0-2.17.52,1.61,1.61,0,0,0-.83,1.43,1.54,1.54,0,0,0,.75,1.36,6.81,6.81,0,0,0,2.52.76,10.52,10.52,0,0,1,3.81,1.2,2.62,2.62,0,0,1,1.21,2.38,3.43,3.43,0,0,1-1.3,2.68,6,6,0,0,1-4,1.13q-4.85,0-5.3-4h1.95a2.32,2.32,0,0,0,.84,1.61,3.72,3.72,0,0,0,2.46.66,5.2,5.2,0,0,0,2.47-.51,1.53,1.53,0,0,0,.92-1.44,1.32,1.32,0,0,0-.76-1.17,11.26,11.26,0,0,0-3-.78,8.68,8.68,0,0,1-3.34-1.17A2.78,2.78,0,0,1,306,80a3.36,3.36,0,0,1,1.41-2.85,6.07,6.07,0,0,1,3.71-1,5.3,5.3,0,0,1,3.49,1.13A3.64,3.64,0,0,1,315.93,80.22Z"/><path class="cls-3" d="M318.88,72.72a1.51,1.51,0,1,1,1,.42A1.43,1.43,0,0,1,318.88,72.72ZM319,89V76.49h2V89Z"/><path class="cls-3" d="M323.48,78.09v-1.6h2.33V72.84h2v3.65h2.53v1.6h-2.53v7.67A2.17,2.17,0,0,0,328,87a1,1,0,0,0,.92.39,9.82,9.82,0,0,0,1.3-.08v1.75q-1.05.07-2,.08a2.37,2.37,0,0,1-1.9-.67,3.93,3.93,0,0,1-.58-2.48v-7.9Z"/><path class="cls-3" d="M341.88,85.17l2,.3a5.93,5.93,0,0,1-5.75,3.88,5.54,5.54,0,0,1-4.24-1.75,6.16,6.16,0,0,1-1.64-4.37,7.74,7.74,0,0,1,1.63-5.12,5.37,5.37,0,0,1,4.35-2,5.76,5.76,0,0,1,4.35,1.69,6.66,6.66,0,0,1,1.63,4.81v.55h-9.85a4.49,4.49,0,0,0,1.11,3.24,3.92,3.92,0,0,0,6.41-1.26Zm-7.48-3.57h7.7a4.4,4.4,0,0,0-1.19-2.73,3.59,3.59,0,0,0-2.64-1A3.48,3.48,0,0,0,335.52,79,4.39,4.39,0,0,0,334.41,81.59Z"/></g></g></svg>